<?xml version="1.0" encoding="UTF-8"?>
<svg id="Layer_1" data-name="Layer 1" xmlns="http://www.w3.org/2000/svg" version="1.1" xmlns:xlink="http://www.w3.org/1999/xlink" viewBox="0 0 422 241.7">
  <defs>
    <style>
      .cls-1 {
        fill: #000;
        stroke-width: 0px;
      }

      .cls-2, .cls-3 {
        isolation: isolate;
      }

      .cls-3 {
        fill: #efcf32;
        font-family: Forturn, Forturn;
        font-size: 35px;
      }
    </style>
  </defs>
  <g id="a-journal-s1">
    <g id="Group_84" data-name="Group 84">
      <g id="a-journal-s1-1">
        <image id="banner1200-titleBg" class="cls-2" width="756" height="254" transform="translate(104.8 7.4) rotate(-2) scale(.3)" xlink:href="a-journal-s1-1.png"/>
        <g id="A_Journal" data-name="A Journal" class="cls-2">
          <g class="cls-2">
            <text class="cls-3" transform="translate(151.4 48.7)"><tspan x="0" y="0">A Journal</tspan></text>
          </g>
        </g>
        <g id="_Written_in_Stars" data-name=" Written in Stars" class="cls-2">
          <g class="cls-2">
            <g class="cls-2">
              <path class="cls-1" d="M129.9,78.1c-.4.4-.8.8-1.1,1.3-.3.4-.6.9-.8,1.3-.2.3-.4.6-.6.8-1.4,2.5-2.9,5-4.2,7.6-.3.8-.9,1.5-1.1,2.2l-.2.3c0,.1-.2.3-.4.5-1,2-2.1,4.1-3.1,6,0,.2-.2.4-.2.6-.4.5-.6,1-.8,1.5-.4.4-.6.9-.6,1.3-.4.5-.6.8-.8,1.2-.4.7-.7,1.3-1.1,2-.2.3-.3.6-.4.9h0c-.1,0-.3.2-.4.3l-.4,1c-.1.4-.4.7-.6,1-.1.1-.1.3-.2.5,0,0-.2.2-.3.3-.6,1.1-1.2,2-1.5,3.1h0c0,0-.1.2-.1.3,0,0,0,.2-.1.3-1,1.1-1.5,2.4-2.1,3.6-.3.6-.8,1.3-.9,2-.5.4-.6,1-.8,1.5l-.4.6c-.5.9-1.1,1.8-1.5,2.7,0,.3-.2.6-.3.8h0c0,.2-.3.4-.4.7-.7.9-1.1,1.9-1.5,2.9h0c0,0,0,0,0,0-.3.3-.6.8-.7,1.3-.4.7-.9,1.4-1.3,2.2l-1.1,2.2c-.1.3-.3.6-.2.9-.2.3-.6.6-.8,1-.1.3-.4.8-.6,1.1-.3.4-.5.8-.7,1.2-1,1.9-2.1,3.8-3.1,5.6-.3.5-.4,1-.7,1.4-1.4,2.5-2.7,4.9-4.1,7.4-.2.5-.4,1-.7,1.5-.1.1-.3.3-.4.5-.8,1.3-1.4,2.5-2.2,3.8l-.8,1.4c-.2.5-.4,1-.7,1.5,0,.2-.1.4-.3.6-.6.7-1,1.5-1.3,2.3-.4.4-.5.7-.7,1.1h0c0,0,0,0,0,0h0c-.3.4-.4.6-.6,1.1h0c-.1.2-.2.3-.4.6h0c-.8,1-1.3,2-2,3.2,0,.6-.6,1.1-1.1,1.7,0,.1,0,.3,0,.3-1,1.7-2.2,3.2-3.6,4.7-.6.7-1.4,1.4-2.2,1.9-1.3.8-2.6,1-3.7.5-.8-.4-1.5-.8-2.1-1.5-.4-.6-.8-1.3-1.1-2-.4-1-.6-2-.8-3.2-.5-3.7-.5-7.6-.2-11.5.1-2,.4-4.1.6-6.2.2-2.1.6-4.1.8-6.2.2-1.5.4-2.9.7-4.5.3-1.6.6-3.2.9-4.9.5-2.2.9-4.3,1.4-6.5,0-.5.2-1,.4-1.5,0-.4.2-.8.3-1.3l.6-2.7c.2-1,.6-2,.6-3.1,0-.2,0-.4.1-.8l-.3.2c-.8,1.5-1.7,2.9-2.5,4.4,0,.2-.2.4-.3.6-.7.8-1.2,1.8-1.6,2.7-.2.3-.4.6-.6.9-1.3,2.2-2.7,4.4-4.1,6.7-.1.4-.2.7-.4,1.1-.2.3-.5.6-.6.8-.6,1-1.3,2.1-2,3.1-.2.4-.4.8-.6,1.1-.3.3-.4.6-.6.9-.7,1-1.4,2.1-2,3.2-.3.4-.4.9-.7,1.3h0c0,0-.1,0-.1,0-.8,1.3-1.8,2.5-2.4,3.8,0,.2-.1.4-.4.6h0c-.2.3-.4.6-.6.9-.1.3-.4.6-.6.9-.3.4-.7.8-.9,1.4h0c0,0,0,0,0,0-.1.1-.2.3-.3.6,0,.1,0,.2-.1.3-.1.2-.2.5-.5.6-.3.2-.4.5-.5.8-.2.2-.3.4-.4.6,0,.1-.1.3-.1.4-.6.5-1,1-1.3,1.8-.5,1-1.1,2-2,2.9-.1,0-.2.2-.2.3-.5.6-.9,1.3-1.3,2-.2.3-.3.6-.6,1-1.5,2.1-3.1,4.3-4.8,6.4-1.3,1.7-2.7,3.4-4.5,4.8-.7.6-1.5,1.2-2.4,1.5-.9.4-1.8.4-2.7.2-1.5-.5-2.5-1.5-2.8-3.1-.3-1.6-.6-3.2-.6-5s.2-5,.6-7.6c.2-2,.7-4.1,1-6.1.4-2,.8-3.9,1.3-5.9.1-.7.3-1.4.5-2.2.6-1.8,1-3.7,1.6-5.5.8-2.7,1.7-5.4,2.7-8.1.7-2,1.5-4,2.3-6,1-2.7,2.2-5.5,3.4-8.2,1-2,1.9-4.1,2.9-6.2l3-6.2c.6-1.2,1.3-2.4,2-3.6l1.3-2.3c1-2,2.2-4.1,3.4-6,1.3-2.2,2.7-4.4,4.2-6.5.2-.3.4-.5.5-.6,0-.1.3-.1.6-.3,0,.2,0,.3-.1.5-.4.8-.7,1.5-1.1,2.2-.4.9-1,1.8-1.5,2.7-.2.4-.3.6-.2.9-.8,1.6-1.6,3.2-2.5,4.8-2,3.8-3.9,7.6-5.7,11.6l-3.1,6.9c-.9,2-1.8,4.1-2.6,6.2-.9,2.2-1.7,4.3-2.5,6.4-.4,1.1-.8,2.2-1.1,3.4,0,.1-.1.3-.1.4-.7,1.5-1,2.9-1.5,4.4-.7,1.9-1.2,3.9-1.6,5.8-.1.1-.1.2-.2.4-.3.7-.5,1.4-.6,2.1,0,.6-.2,1.1-.4,1.7-.3,1.3-.7,2.5-.9,3.8-.3,1.2-.4,2.3-.8,3.5-.1.6-.1,1.3-.3,1.9.3.6-.4,1.3-.2,2,0,0,0,.1,0,.2-.2.6-.2,1.1-.3,1.6,0,.6-.2,1.1-.3,1.6-.1.8-.2,1.7-.1,2.5,0,.8-.1,1.6-.1,2.5,0,.5,0,.9,0,1.4,0,.3,0,.7.1,1.1,0,1.3.1,2.7.6,3.9,0,.4.2.7.4,1.1,0,.2.4.2.6,0,.3-.1.6-.4.8-.6,1.2-1,2.2-2.1,3.2-3.3,1.2-1.6,2.5-3.2,3.6-4.8,1.1-1.5,2.1-3.1,3.2-4.7l.8-1.1c1.6-2.5,3.2-4.8,4.8-7.3l2.5-3.8c1-1.5,2-3.1,2.9-4.6.4-.6.8-1.2,1.2-1.8l2.9-4.8c.4-.8.9-1.5,1.3-2.3l2.8-4.6c.4-.6.7-1,1-1.6.8-1.3,1.7-2.7,2.4-4,1-1.6,2-3.2,2.9-4.9.8-1.2,1.4-2.5,2.2-3.6l1-1.8c.8-1.2,1.4-2.5,2.2-3.6.4-.6.7-1.3,1.2-1.8.4-.6.9-.7,1.4-.5.4,0,.6.2.9.3.6,0,.9.6,1.3.8.1.1.1.4,0,.6,0,.9-.1,1.9-.5,2.8,0,.3-.1.6-.1.9,0,.6-.2,1.3-.6,2,0,0,0,.2,0,.3,0,1-.4,2-.8,2.9,0,.1,0,.4-.1.6-.1,1.5-.4,3.1-1,4.7-.1.3-.1.6-.2.9,0,.2,0,.4-.1.6-.1.2-.2.4-.2.6,0,.6-.2,1.3-.3,1.9l-.4,1.2c0,0,0,.1,0,.2.1.6-.2,1.3-.3,2,0,.6-.2,1.3-.4,2,0,.3-.1.5-.1.7s0,.3,0,.6c-.4,1.2-.4,2.3-.7,3.5,0,.1,0,.3-.1.6,0,.2,0,.4,0,.6-.5,1.1-.4,2.2-.8,3.4,0,.3-.1.7,0,1,0,.4,0,.7,0,1.1-.1.4,0,.8-.1,1.2,0,1.1-.3,2.3-.4,3.4l-.2,1.9c-.2.6-.1,1.3-.2,2,0,.3,0,.5,0,.7,0,.5,0,.9,0,1.4,0,.5-.1.9-.1,1.4,0,1.2,0,2.3,0,3.5.1,1.5.2,3.1.4,4.6,0,1.5.4,2.9.8,4.3.2.5.4,1,.8,1.4.4-.1.8-.4,1-.8,1.1-1.1,2-2.2,2.9-3.4l2.9-4.1c.5-.8.9-1.6,1.4-2.4.1-.3.4-.8.6-1.1,1.1-1.7,2.1-3.4,3.1-5.1.5-1,1.1-1.9,1.6-2.8.3-.4.4-.8.7-1.2l3.2-5.9c.6-1.1,1.3-2.3,1.8-3.4l1.2-2c1.2-2.2,2.4-4.5,3.6-6.7,1.2-2.1,2.5-4.3,3.5-6.4l2.2-4.1c.5-.9,1-1.8,1.5-2.6.8-1.5,1.5-3.1,2.4-4.6.7-1.3,1.4-2.5,2-3.8.4-.6.8-1.3,1.1-1.9,1.6-2.9,3.2-6,4.8-8.9,1-1.8,2-3.7,3-5.6.5-.8,1-1.7,1.5-2.6l1.3-2.4c.4-.8.9-1.6,1.3-2.5.5-.9,1-1.9,1.5-2.8l4.3-7.8c.6-1,1.2-1.9,1.9-2.9.2-.4.6-.8.9-1.1.3-.3.8-.4,1-.3,0,0,.1.1.3.1.6,0,.8.5,1,1ZM36.5,173.7h0c0,0,0,.1,0,.2,0,0,0-.1.1-.2ZM36.4,134.6q.4-.6.5-1.1c-.2.4-.3.7-.5,1.1ZM37.5,172.3c.5-.3.7-.6.9-1l.2-.3c.2-.3.6-.5.8-.8l.8-1.3h0c0,0,0,0,0,0h.2c0-.1.1-.3.2-.4.3-.2.6-.6.6-.8,0-.1.1-.3.3-.4.4-.2.5-.6.6-.8l.2-.4c.3-.3.4-.5.6-.8h-.2,0c0,0,.2,0,.2,0h0c.4-.2.5-.6.6-.8.4-.3.5-.6.7-.9h0c.8-.8,1.3-1.8,1.8-2.7,0,0-.1,0-.2,0h.2c0,0,.4-.5.4-.5,1-1.5,2-3.2,3-4.7.2-.3.3-.6.5-.9l.3-.5c0-.1.2-.3.3-.3h0c0-.2.1-.4.2-.6h0c.5-.5.7-1,.9-1.5.3-.2.5-.6.6-.8-.1,0-.3.2-.4.4.1-.6.5-1,1-1.5-.1.2-.1.4-.2.6,0-.2.2-.4.4-.6.3-.3.4-.6.6-.9l-.5.4c0-.2.1-.4.2-.6-.4.3-.6.6-.8,1-1.5,2.3-2.9,4.6-4.5,6.9-2.8,4.4-5.7,8.8-8.7,13.1-.3.4-.5.8-.8,1.3,0,.1-.2.3-.3.3-.4.4-.6.7-.8,1.1-.2.2-.4.4-.6.7.4-.1.6-.4.6-.7ZM37.5,131.9h0q0-.1,0-.1h0ZM38,130.7h0c0,0,0,0,0,0h0ZM71.7,121c.1-.1.3-.3,0-.4-.3.4-.6.8-.8,1.3-1.3,2.2-2.5,4.5-3.9,6.7l-8.5,13.9c-1.5,2.6-3.2,5.1-4.8,7.7-1.9,2.9-3.9,5.9-5.7,8.8-2.9,4.5-5.8,9-9.1,13.3-.2.3-.4.6-.6.9,0,.1-.1.3-.3.4,0,0,0,0,0,.1,0,0,0-.1.1-.2,0,0,.1-.2.2-.3.3-.3.6-.5.8-.8.8-1.1,1.7-2.2,2.5-3.4,1.8-2.6,3.7-5.2,5.4-7.9,2.2-3.3,4.3-6.7,6.4-10,1.8-2.9,3.7-5.8,5.5-8.8l4.2-7c2-3.4,4.1-6.7,6-10.1.8-1.5,1.7-2.9,2.5-4.4ZM38.6,129.3c.4-.5.5-.8.6-1.4-.3.6-.5.8-.6,1.4ZM39.7,126.4h.1c0,0,.1-.2.1-.3.2-.4.3-.8.4-1.3.1-.3.4-.7.6-1.1.6-1.3,1-2.6,1.7-3.9.2-.3.4-.8.4-1.1.9-1.5,1.5-2.9,2.1-4.5,0-.1.1-.3.3-.6-.2.2-.3.4-.3.6-.8,1.5-1.6,2.9-2.1,4.5-.2.4-.4.7-.4,1.1-.3.4-.6.8-.8,1.3-.4.7-.6,1.4-.8,2.1-.3.6-.5,1.1-.6,1.6-.3.5-.5,1-.7,1.5h0ZM40.5,168.5c0,.1,0,.2,0,.4h-.1l.2-.4ZM41.9,166.4h0c0,0,0,0,0,0ZM42.2,166.4c0,0-.1,0-.2,0,0,0,.1-.2.3-.3,0,.1,0,.3,0,.4ZM43.4,164.1c0,0,.1,0,.2,0,0,0-.1,0-.2,0ZM45.6,113.3v.2-.2c.1,0,0,0,0,0ZM46.2,112.2l.4-.9c-.4.4-.4.5-.4.9ZM47.9,108.7c.4-.5.6-1.1.8-1.7-.4.6-.7,1.1-.8,1.7ZM49.1,106.2h0c0,0,0,0,0,0h0ZM49.8,154.5h0c0,0-.1,0-.1,0h0ZM50.1,154c0,.1,0,.3-.1.5h-.1c0-.1.1-.4.3-.5ZM50,104.3h0c0,0,0,0,0,0ZM50.7,153.1c0,.1,0,.3,0,.5-.1.1-.3.3-.3.4h-.2c.3-.3.4-.6.6-.9ZM51,152.6c0,.1,0,.2,0,.3h0q0,0-.1,0l.3-.4ZM51,152.6s0,0,0,0q0,0,0-.1h0ZM51.9,151c0,.2-.1.4-.1.6h-.2c0-.2.3-.4.4-.6ZM53.1,149.1c0,.2,0,.4,0,.6h-.2c.1-.1.2-.3.3-.6ZM53.5,98.4h0c0,0,0-.1,0-.2,0,0,0,.1,0,.2ZM53.7,148l.4-.4c0,.1,0,.4-.2.6.2-.2.3-.4.4-.6h-.2c.3-.6.5-1,1-1.5,0,.2-.1.3-.1.6,0-.2.2-.3.4-.5,0,0-.1,0-.2,0,.1-.3.4-.6.5-1,.3-.4.4-.8.6-1.1-1.1,1.3-1.8,2.6-2.5,3.9ZM54.9,150.4c0,0,0,0,0,0q0,0,0,0ZM56.8,143c.3-.2.5-.6.6-.8-.3.2-.5.5-.6.8ZM57.7,142.3c0-.2.2-.3.3-.6-.1.1-.2.3-.3.6ZM58.8,139.8c.1-.3.4-.6.6-.9l1-1.3h0c0,0,0,0,0,0,.1-.4.3-.8.5-1.2-.8,1.1-1.5,2.2-2,3.4ZM63.4,132c.1,0,.3-.2.2-.4,0,.1-.1.2-.2.4ZM66.9,126.1h0s0,0,0-.1h0q0,0,0,.1ZM66.9,130.2c0,0,.1,0,.2,0h0c0,0,0,0-.1,0ZM75.7,172h0c0,0,.2,0,.2,0,0-.1.1-.2.2-.3h0c.3-.3.6-.6.6-.9.4-.4.6-.6.8-1,1.1-1.6,2.1-3.3,3.2-5,.2-.3.3-.7.5-1,0,0-.1,0-.2,0,.1-.3.4-.8.5-1.2.9-1.1,1.5-2.2,2-3.4l-.2.2c-.6.9-1.1,1.8-1.5,2.6,0,.2-.1.4-.3.6-.5.6-.8,1.2-1.2,1.8-2,3.2-4,6.4-6.2,9.5v.2c.6-.7,1.2-1.4,1.8-2.1ZM89.7,151.2c-.3.1-.4.2-.4.4l-1.5,2.6c-2.4,4.3-4.8,8.5-7.4,12.7-1.5,2.4-3,4.8-4.7,7.1-.1.2-.2.4-.4.6.5-.1.6-.6,1-.9,1.1-1.4,2-2.9,3-4.3,2.5-3.9,4.8-7.9,7-12,.8-1.4,1.7-2.9,2.5-4.3.1-.3.3-.6.5-.9l.5-.9ZM76.3,171.2c-.1.1-.1.3-.2.5h0c0,0-.1,0-.1,0,0,.1,0,.2,0,.3,0,0-.1,0-.2,0l.2-.3c.1-.2.2-.4.4-.6ZM79.6,166l-.3.5c0-.2.2-.3.3-.5ZM80.2,165c0,.1-.2.3-.3.5l.3-.5ZM80.3,164.9h0c.1-.1.2-.3.4-.5-.1.1-.2.4-.3.5ZM82.1,165.8c.1-.2.1-.3.2-.6,0,.2,0,.3-.2.6ZM83.8,163.2c0,0-.1,0-.2,0,0,0,.1,0,.2,0ZM83.6,158.6c.3-.1.4-.4.5-.8-.4.3-.4.6-.5.8ZM84.9,160.8h.2q0,0-.1.1t0-.1ZM85.1,160.8c0-.1,0-.4,0-.6,0,0,.1,0,.2,0l-.3.5ZM89.2,153.1h.2c-.1.2-.1,0-.2,0ZM92.6,145.7c-.7.9-2,3.3-2.4,4.3.3-.3.5-.6.6-.9.5-.8,1-1.7,1.5-2.6.1-.2.2-.5.3-.8ZM95.3,142.4q0,0,0-.1c0,0,0,0,0,.1ZM95.5,142.2h0c0,0,0,0,0,0ZM106.9,120.2h.2c-.1.1-.2.1-.2,0ZM107.1,120.2v-.6c.1.2,0,.4,0,.6ZM128,77.8h0c0,0,0,0,0,0h0c0,0,.1,0,.1,0ZM129,78.4c-.5.3-.6.6-.7.9.3-.2.5-.5.7-.9Z"/>
              <path class="cls-1" d="M119,143.1c-.1.1-.2,0-.4,0s0,0-.1,0c-.6-.6-1-.7-1.5-.5-.4.1-.8.2-1.1.3-1.1.4-2.2,1-3.2,1.5-.6.3-1.1.6-1.5,1-.2.1-.5.3-.8.4-.1,0-.4,0-.4.3,0,.3-.5.4-.8.6h-.1v.2c-.2,0-.4.2-.6.3h0c0,.1-.1.1-.1.2,0,0,0,0,0-.1h0c-.1,0-.4,0-.4.3-.1.1-.4.2-.5.4-.1.1-.4.2-.5.4h-.1c-.2.2-.4.3-.5.5h0c0,0-.1.1-.1.2-.1,0-.2,0-.4.1v.2c-.4,0-.6.3-.8.5v.2c-.5.1-.8.4-.8.7h0q0,0,0,.1t0-.1h-.1c0,.2,0,.3-.1.3-.2,0-.4.1-.4.4,0,0-.1.1-.2.1,0,0,0,.1-.1.2,0,0,0,0,0,.1-.6.3-.9.8-1.3,1.3h.4c-.1.2-.4.4-.6.7,0-.1,0-.3,0-.4-.2.1-.4.4-.6.7-.6.6-1.2,1.3-1.5,2.1h-.1c0,.2-.1.3-.1.3,0,0-.1,0-.1,0,0,.1,0,.4-.3.5-.3,0-.6.1-.9,0-.5-.2-.9-.3-1.1-.9,0-.2-.3-.3-.4-.5-.3-.3-.4-.7-.3-1.1.6-1.9,1.1-3.8,1.8-5.7.6-1.7,1.2-3.3,1.7-5,.2-.8.4-1.5.8-2.2l.2-.4c0-.1.2-.1.3,0,.4.2.6.5.8.9.2.6.1,1.1,0,1.7-.2,1.5-.8,2.8-.8,4.2s-.1.3-.1.5,0,.2.1.3c.1.1.3,0,.4,0l.7-.6c1.1-1.1,2.4-1.9,3.6-2.8,1-.7,2-1.2,3-1.8,1.3-.8,2.7-1.5,4.2-2.2.9-.4,2-.8,3-.9,1-.1,1.8.1,2.6.9.4.4.8.8,1.1,1.3,0,.1,0,.3-.1.4ZM99,156.6h-.1c0,0,0,0,.1,0ZM115.3,142.4c-.8.2-1.5.5-2.3.9-2.7,1.5-5.2,2.9-7.4,4.8-2.4,2-4.1,4.4-6.2,6.6-.1.1-.4.3-.4.6h0c0,0,0,0,0,0,.4-.3.6-.7.9-1.1,1.9-2.3,3.9-4.5,6.4-6.4,2.5-2,5.2-4.1,8.3-5.1.2,0,.5-.2.6-.4ZM99,156.4h.1c0,0,0,.1-.1.2v-.2ZM99.2,156.4h0c0-.1.1-.1.1-.1h-.1ZM99.3,156.2c0,0,0-.1.1-.1,0,0,0,0-.1.1ZM99.5,155.9c0,0,0,.1,0,.1,0,0,0,0,0-.1ZM99.7,155.9s0,0-.1,0c0,0,0,0,.1-.1h.1c0-.1-.1,0-.1,0ZM99.9,155.5h-.1c0,0,0,0,0,0h.1q0,0,0,0ZM100,155.4h0c0,0,0,0,0,0ZM100.1,155.3c0,0,0,0,0-.1l.2-.2c0,0-.1.1-.1.2,0,0,0,.1-.1.1ZM100.4,155v-.2h.2,0c0,0,0,.1-.1.2ZM101.1,150.1c.2,0,.4-.1.4-.3-.1,0-.3.1-.4.3ZM101.2,153.9h.1c0,0,0,0-.1,0ZM102,153.1h0c0,0,.1-.1.1-.2,0,0,0,.1,0,.2ZM102.3,152.7h-.2c0,0,.1,0,.1,0v-.2c.2,0,.3-.1.3-.1l.2-.2c0,0-.1.1-.1.2,0,0-.1,0-.1.1,0,0-.1.1-.1.2ZM102.1,149c.2,0,.4-.1.4-.3-.1,0-.3.2-.4.3ZM102.7,152.2c0,0,0-.1.1-.1,0,0-.1,0-.1.1ZM102.7,148.4h.4c0,0,0-.2,0-.3-.2,0-.4.1-.4.3ZM102.8,151.8h.1c0,0,0,.1-.1.1h0ZM103,151.7h.1-.1c0,.1,0,0,0,0ZM103.1,151.5h.1v.2c-.1,0-.1-.2-.1-.2ZM103.2,148.1s0,0,.1,0c0,0,.2,0,.3,0,0,0,0,.1,0,.1.2,0,.3-.1.4-.3h-.4c0-.1,0-.3.1-.4h.4c0,.1.4,0,.4,0h-.4c0-.1,0-.3.1-.3h.4c0,0,.2,0,.3,0h-.3c0-.1,0-.2.1-.3s.2,0,.3,0c0,0,0,0,0,.1.1,0,.2,0,.3-.1h-.4c0-.1.1-.2.2-.3h.3c.1.1.3,0,.4,0,.2,0,.4-.2.4-.4h-.4q0,0,0-.1h.3s0,0,0,.1c0,0,.2,0,.3-.2.2,0,.4-.1.5-.3.1,0,.2,0,.3-.1.4-.1.6-.3.8-.6h0q0,0,0,0c0,0,.2,0,.3-.1.1,0,.3,0,.3-.2h-.3c0,0,.2,0,.3-.1q0,0,0,.1c0,0,.2,0,.3-.1h-.3c0,0,.1-.1.3-.2h0c.3,0,.6,0,.8-.3h.4c.1-.2.2-.2.3-.4.1,0,.3,0,.4-.1.2,0,.3-.3.5-.4h0c0,0,.3-.1.3-.1h0c.1-.1.2-.1.4-.2h0c.4,0,.6-.2.8-.3h0c.1-.1.2-.1.4-.1,0,0,0-.1,0-.1s-.2,0-.3.1c-.4,0-.6,0-.8.4-.1,0-.3,0-.4.1-1.3.5-2.4,1.2-3.5,1.9-.6.2-1.1.6-1.4.9-.4,0-.6.3-.8.5-.3.1-.6.3-.8.6-.1,0-.4.2-.5.3-.1,0-.4.1-.4.4-.2,0-.4.1-.4.3-.3,0-.5.2-.6.5,0,0,0,0,0,.1ZM103.2,151.3h.3c0,0-.1,0-.3.1h0ZM103.5,151.3c0,0,.1-.1.2-.2,0,0-.1.1-.1.2h0ZM103.7,151h.2c0,0-.1,0-.1.1,0,0,0,0,0-.1ZM103.8,150.8h.2c0,0,0,.1-.1.2,0,0,0-.1,0-.2ZM104.4,150.5v-.2c.1,0,0,.1,0,.2h0ZM104.8,150.1c0,0,0,0,0-.1h.1c0,0,0,0,0,.1ZM104.9,149.7h.3c-.1,0-.2.1-.3.2,0,0,0-.1,0-.2ZM105.3,149.6c0,0,0,0-.1.1,0,0,0-.1.1-.1ZM105.3,149.6v-.2c.1,0,0,.1,0,.2ZM105.5,149.2h.1-.1c0,.1,0,0,0,0ZM105.6,149h.4l-.4.2h0v-.2ZM105.6,149.2h0,0ZM106,146.2v.2h-.4c0,0,.2-.1.4-.2ZM106,148.9h.1c0,0,0,0-.1.1h0ZM106.1,148.7h.3l-.3.2v-.2ZM106.4,148.7c0,0,.1-.1.2-.2h0c0,.1-.1.1-.1.2h0ZM106.8,145.6v.2h-.4l.4-.2ZM106.6,148.4s0,0,0-.1h.2-.1ZM107.2,145.4s0,0,0,.1h-.4c0-.1.3-.1.3-.1ZM107.6,145.2v.2h-.4l.4-.2ZM107.7,147.4v.2c0-.1,0-.1,0-.2ZM107.7,147.7h0c0,0,0,0,0,0ZM108.6,144.5c0,0,0,.1,0,.2,0,0-.2,0-.3,0h0c0,0,.1,0,.2-.1ZM113.3,141.8c.3,0,.5-.1.4-.1-.2,0-.4,0-.4.1Z"/>
              <path class="cls-1" d="M137,142.3c0,.2,0,.4-.1.6,0,0,0,.1-.1.2-1.1.9-2.3,1.8-3.5,2.7-1.6,1.3-3.3,2.5-4.8,3.8-2.7,2-5.4,4.1-8.1,6.2-.8.6-1.7,1.2-2.6,1.7-.4.2-.8.4-1.3.5-.6,0-1,0-1.3-.3l-.4-.2c-.6-.4-.9-1-.8-1.9.1-1,.3-2.2.8-3.1.3-.4.5-.8.6-1.3.6-1.5,1.5-2.9,2.3-4.3.8-1.5,1.7-3,2.6-4.5,1-1.4,2-2.9,3.1-4.3.1-.1.3-.4.6-.4.8.4.9.7.6,1.5-.3.8-.7,1.7-1.2,2.5-.4.6-.6,1.1-.9,1.7,0,0-.1.2-.1.3h.1c-.1.1-.2.2-.2.3-.3.2-.4.4-.6.7-.2.6-.6,1.1-.9,1.7,0,.2-.1.4-.3.6,0,.1-.1.2-.1.3q0,0,.1,0h-.1c-.4.4-.6.8-.8,1.3-.2.3-.5.6-.5,1.1-.3.3-.5.7-.6,1-.3.5-.6.9-.7,1.5,0,0,0,.1-.1.2-.6.8-.8,1.8-1.2,2.7,0,.3,0,.6,0,.8s.2.2.4.2c.1,0,.3-.1.4-.2l1.3-.8c.6-.4,1.2-.9,1.8-1.3,1.5-1.1,3-2.2,4.5-3.3,1.1-.8,2.2-1.5,3.3-2.4,1.6-1.2,3.3-2.4,4.9-3.6l2.9-2.1c.3-.3.6-.3,1-.1h.2ZM117,152.4h0c0,0,0,0,0,0ZM117.3,151.6c.1-.1.1-.3.2-.4,0-.1,0-.3.1-.3h0c0,0,0,.2-.1.3,0,.1,0,.2-.2.4h0ZM118,150.1q0,0,.1,0s0,0,0,0c0,0,0,0,0,.1ZM118.8,148.7c0-.1,0-.2,0-.3,0,0,0,.2,0,.3ZM126.8,134c-.2-.3-.5-.6-.4-1,0-.3.2-.6.4-.9.7-1.2,1.6-2.3,2.5-3.4.2-.3.5-.5.8-.7.3-.2.6-.2.8,0,.2.2.4.4.6.5-.2.3-.3.5-.6.7-.3.1-.5.3-.6.6-.1,0-.4.1-.4.5.1-.3.2-.3.4-.5.1-.2.4-.4.6-.6.3,0,.4-.1.8-.2-.2.2-.2.3-.3.3-.6.4-1.2.9-1.6,1.5-.5.7-1,1.4-1.3,2.2-.3.4-.6.8-.9,1.2-.4,0-.6,0-.8-.2ZM130.1,128.7h0c.1,0,.4,0,.4-.3h0c-.1,0-.2,0-.3,0,0,0,0,.1,0,.2Z"/>
              <path class="cls-1" d="M210.5,103.6c-.2.2-.4,0-.6,0-1.1-.6-2.3-.7-3.5-.8-1.6-.2-3.2-.3-4.8-.4-4.9-.3-9.8-.4-14.6-.3h-8.2c-3,0-6.1.1-9.2.2-3.7,0-7.5.2-11.2.4-1,0-2.2,0-3.2,0-.6,0-1,.2-1.3.7-.6,1.1-1.2,2.2-1.8,3.4h0c0,.3-.1.3-.2.5h0c0,.1-.1.2-.2.3-.1,0-.1.2-.2.4,0,0-.1.2-.1.3-.1,0-.1.2-.2.3,0,0-.1.2-.1.4l-.2.3c0,0-.1.2-.1.4-.1,0-.1.2-.2.3,0,.1,0,.3-.1.4-.1.1-.1.2-.2.3,0,0-.1.2-.1.4l-.2.3c0,.1,0,.3-.1.3,0,.1-.1.3-.2.4-.4.4-.6.9-.7,1.4,0,.1,0,.3-.1.3-.4.6-.7,1.3-.9,2,0,0-.1.2-.1.4-.1,0-.1.2-.2.3,0,.1,0,.2-.1.4-.3.3-.5.8-.6,1.3-.1.2-.2.4,0,.7,0,0-.1.2-.2.3h0c-.1.1-.4.2-.4.5,0,.1,0,.2-.1.4-.3.3-.5.8-.6,1.3h0c0,0,0,.1-.1.3-.2.3-.4.6-.4.9-.1,0-.1.2-.2.3-.1.3-.4.5-.3.8-.3.2-.4.6-.4.9v.4c-.6.7-.9,1.5-1,2.3,0,0,0,.2-.1.3,0,0,.1,0,.1,0h-.1c0,.1-.1.3-.2.4-.1.2,0,.3,0,.5l-.4.4c-.1.3-.3.6-.3.9-.1.1-.2.3-.2.5-.2.3-.4.6-.4.9,0,.1-.1.2-.1.3-.2.1-.2.3-.2.6,0,0-.1.2-.2.3,0,.1-.1.3-.1.5-.2.3-.4.6-.4.9,0,.2,0,.4,0,.6-.1.1-.3.3-.4.5,0,0,0,.2,0,.3l-.2.5q0,0-.1,0c-.2.4-.4.7-.4,1.1v.6c0,.1,0,.2-.1.3h0c0,.3-.4.4-.4.8,0,0,0,.2-.1.4s-.1.3-.1.5c0,0-.1.2-.1.3,0,.4,0,.7-.4,1-.2.2-.3.5-.3.8-.5.9-.8,2-1.1,3-.2.3-.4.6-.4,1,0,.3-.2.6-.4.8-.1.3-.2.6-.3.8l-.2.8c-.2.4-.4.8-.4,1.2v.2c0,.3-.4.4-.4.7-.2.3-.3.7-.4,1-.4.8-.6,1.5-.7,2.3-.2.2-.4.5-.4.8l-.6,2.3c0,.1-.1.3-.2.5,0,.2-.1.3-.1.6l-.2.5c-.3.9-.6,1.9-.8,2.8-.2.4-.4.8-.4,1.3h0l-.2.6h0c-.2.3-.3.6-.4,1-.2.4-.4.8-.4,1.3,0,.1-.1.4-.1.5-.1.2-.2.5-.2.7,0,.2-.1.3-.1.6l-.2.6h0c-.1.6-.3,1.1-.5,1.8h0c-.2.4-.4.8-.4,1.2-.2.4-.4.8-.4,1.3-.2.2-.3.4-.4.7l-.4,1.4c-.1.4-.2.8-.2,1.3s-.1,1-.3,1.5c0,.3-.2.6-.5.8,0,0-.2,0-.3,0s-.1-.1-.2,0q-.3.3-.6,0c-.2-.2-.4-.3-.7-.4-.4,0-.6-.3-.4-.8.4-1.5.7-3,1.1-4.5.6-1.9,1.1-3.9,1.6-5.7.7-2.3,1.3-4.7,2.1-6.9.2-.8.4-1.5.6-2.2.4-1.2.8-2.4,1.1-3.6.3-1.1.6-2.2,1-3.4.4-1.3.8-2.5,1.2-3.6l1.6-5c.4-1.3.9-2.6,1.3-3.9.8-2.1,1.6-4.2,2.3-6.2.5-1.3,1.1-2.6,1.5-3.9.5-1.1.9-2.2,1.4-3.4l1.9-4.2c.7-1.8,1.7-3.6,2.5-5.4,1.1-2.6,2.5-5.1,3.8-7.6l1.4-2.7c.4-.8.3-.9-.5-.8-1.5,0-3.1.1-4.6.2l-7.1.4c-1.1,0-2.1.2-3.1.3l-2.4.2c-2.2.2-4.3.4-6.4.6-2.3.3-4.6.5-6.9.8l-4.7.6c-1.3.1-2.7.4-4,.5-1.3.2-2.5.4-3.8.6-1.4.2-2.8.3-4.2.6-1.7.2-3.3.4-4.9.7-1.5.2-3.2.3-4.7.4-.8,0-1.5,0-2.2-.1-.6,0-1.1-.2-1.3-.8v-.3c0,0,.2,0,.3,0,.6.2,1.2.2,1.8.1,1.3,0,2.5-.3,3.8-.6,2.4-.4,4.8-.8,7.1-1.2,1.4-.2,2.7-.5,4.1-.7,3.2-.6,6.4-1,9.5-1.5,1.6-.2,3.2-.4,4.8-.7,1.3-.2,2.7-.3,4.1-.5l3.9-.4c1.1-.1,2-.2,3.1-.3l4.8-.4c1.3-.1,2.6-.2,3.9-.3,1.9-.1,3.8-.2,5.6-.4h1.4c1.3,0,2.7-.1,4.1-.2.4,0,.6-.1.8-.4.2-.3.5-.6.6-1,.4-.8,1-1.6,1.5-2.5.6-1.1,1.3-2.2,2-3.3.7-1.1,1.4-2.3,2.2-3.4.7-.9,1.3-1.9,1.9-2.8,1-1.4,2-2.7,3-4.1,1.1-1.5,2.2-2.9,3.4-4.3.6-.8,1.3-1.5,2-2.3,0,0,.1-.1.3-.2.1-.1.3-.3.5-.1.3.1.4.3.4.6s0,.4-.1.6c-.2.3-.4.7-.7,1-1.1,1.7-2.3,3.3-3.5,5-1,1.6-2.2,3.2-3.2,4.9-.1.2-.3.6-.4.8h0c-.3.4-.6.7-.7,1-.3.2-.4.6-.6.8-.4.3-.5.7-.7,1-.4.6-.8,1.1-1,1.8-.4.5-.6,1-.9,1.5-.3.4-.5.8-.6,1.2,0,0-.1.2-.2.4-.3.2-.5.5-.5.8-.4.3-.6.8-.7,1.3l-.2.4c-.1,0-.1.2-.1.3,0,0-.1.1-.2.1h0c0,.1,0,.3-.1.4,0,0,0,0,.1,0,.2.2.5.2.7.2,1.5,0,2.9,0,4.4,0,1.8,0,3.6-.1,5.4-.1,4.7-.1,9.3-.1,13.9-.2,5.3,0,10.6,0,15.9,0,2.3,0,4.6.2,7,.4,1.5.1,3,.3,4.5.8,1,.3,1.8.9,2.5,1.7,0,.1.1.2.1.3.1.1.2.3.1.5ZM126.1,171.1c0,.1,0,.3-.1.4,0,0,.1,0,.1,0v-.5ZM126.4,170.9c0-.2,0-.4,0-.5-.1.2-.1.4-.2.6.2,0,.3,0,.3-.1ZM126.7,169.1c-.1.1-.1.4-.1.6-.1.2-.2.4-.2.6h.2v-.6c0-.2.1-.3.1-.6ZM126.9,168.5c-.1.1-.2.4-.2.6.1-.1.1-.4.2-.6ZM152,106c-.1,0-.2.1-.2.3-.1.1-.1.3-.1.4-.1,0-.2.1-.2.3-.3.2-.4.5-.5.8-1.5,3-3.1,6-4.5,9.1-1.5,3.3-2.9,6.7-4.3,10.1-1.5,3.9-3.1,7.9-4.5,12-1.5,4.1-2.9,8.3-4.2,12.5-2.1,6.4-4.1,12.8-6,19.3-.2.6-.4,1.3-.6,2q0,.2,0,.6c.2-.4.4-.8.4-1.2,1-3.7,2.1-7.4,3.2-11,1-3.1,2-6.2,3-9.2,1.3-4,2.6-7.9,4-11.8,1.3-3.8,2.7-7.6,4.2-11.4,1.3-3.3,2.6-6.5,4.1-9.7.8-1.8,1.6-3.5,2.5-5.3.8-1.8,1.7-3.6,2.6-5.4.2-.4.5-.8.6-1.3.1,0,.2-.2.2-.3.1,0,.1-.2.1-.4.1,0,.2-.2.2-.3ZM126.9,168.4c0-.1.1-.4.1-.6h.2c0-.2,0-.4,0-.7h.2c0-.2,0-.3.2-.6,0-.2,0-.4,0-.6-.1.3-.3.8-.4,1.2,0,.3,0,.5-.1.7-.1.2-.1.4-.1.6ZM127.6,165.9c0-.1.2-.3.4-.5,0,0,0-.3.1-.3.1,0,.1-.2.2-.3h0c.2-.4.4-.7.2-1v-.7c-.1.2-.1.4-.1.7-.4.6-.6,1.4-.7,2.2ZM128.4,162.9h.2c.1.1.1,0,.1,0,.1-.1.2-.3,0-.5l.2-.6c0-.1,0-.3.1-.4.1,0,.1-.2.2-.3,0-.1,0-.4,0-.5,0-.2,0-.4.1-.6,0-.2,0-.3.2-.5v-.7c.1-.1.1-.4.1-.6h.2c0-.2,0-.3.1-.5h0c0-.2,0-.4.2-.6,0-.1,0-.3.1-.3.1,0,.1-.2.1-.4l.2-.5c.1-.2.1-.3,0-.6,0-.2,0-.4.2-.6,0-.1,0-.3.1-.5,0-.1,0-.3.2-.4s.1-.2.1-.3c.1-.1.1-.3.2-.5,0-.2,0-.4,0-.6,0-.1,0-.2.2-.3.2-.1.4-.4,0-.7h0c0-.2,0-.3.1-.6,0,0,0-.2.2-.3.1,0,.1-.3.1-.4-.1-.1-.1-.3-.1-.6h.1v.5l.2-.5c0-.1.1-.4.1-.5-.1-.2-.1-.3-.1-.6h.1v.5c.1-.1.1-.3,0-.5,0-.2,0-.3.2-.5,0,0,0,0,.1,0h-.1c0-.2,0-.4.1-.6v.5c.1-.1.1-.3.2-.5,0-.1.1-.3.1-.5h-.1c0-.2,0-.4.1-.6v.5c.1-.1.1-.3.2-.5,0-.1.1-.4.1-.5h-.1c0-.2,0-.3.1-.6v.5c.1-.1.1-.3.2-.5s.1-.4,0-.5v.5h-.2c0-.2,0-.4.2-.6,0,0,0-.2.1-.3.3-.1.3-.4.3-.7.3-.6.5-1,.6-1.6.1-.1.1-.4.1-.6.1-.1.2-.3.2-.5,0-.2.1-.3.1-.6.1-.1.2-.3.2-.5.1-.1.1-.3.1-.6.1-.1.1-.3.2-.5.1-.2.1-.4.1-.6.1-.1.1-.3.2-.5h-.2v-.6c.1-.1.3-.2.4-.4v.5c.1-.1.2-.3.2-.5,0-.1.1-.3.1-.5.1-.2.2-.4.2-.6.2-.3.4-.5.1-.8l.2-.6q0,.1.1,0c.1-.1.2-.3.2-.5h-.2v-.6h.2v.5c.2-.2.3-.5.4-.8.1-.1.1-.4.1-.5.2-.3.4-.6.4-.9l.2-.5h-.2v-.5s0,0,0,0c-.4.8-.6,1.5-.9,2.2,0,.1,0,.3,0,.4-.1.1-.1.4-.1.6-.2.1-.3.3-.4.5-.3.8-.6,1.5-.8,2.2,0,.1,0,.4-.1.6-.1.1-.1.3-.1.6-.2.1-.3.4-.4.6l-3,9.1c0,.3-.2.6-.1.8-.3.3-.4.6-.4,1.1-.5.9-.8,1.8-.9,2.8-.1.1-.2.4-.3.6-.3.7-.5,1.4-.7,2.1,0,.2,0,.4,0,.6-.4.7-.6,1.5-.7,2.2-.1.1-.1.4-.1.6-.4.6-.5,1.1-.6,1.8-.3.6-.5,1.1-.5,1.8-.2.1-.2.3-.2.5ZM132.8,150h-.2c0,0,.1-.1.2,0ZM133.3,147.9c0-.1.1-.3.2-.5v.5h-.2ZM133.7,146.8c0-.1.1-.4.2-.5v.5h-.2ZM134.5,144.2h0,0c0,0,0,0,0,0ZM134.7,144.2c0,0-.1,0-.1,0,0,0,0-.1,0-.1s0,.1,0,.2ZM135.3,142.1v.6c0,0-.1,0-.2,0,0-.1,0-.4.2-.5ZM135.4,141.6v.5h-.1c0-.1,0-.3.1-.5ZM135.6,141v.6h-.2c0-.2,0-.3.2-.6ZM135.8,140.5v.5h-.1c0-.1,0-.4.1-.5ZM136,140v.6h-.2l.2-.6ZM135.8,146.3h0c0,0,0,0,0,0h0ZM136.1,139.5v.5h-.1c0-.1,0-.3.1-.5ZM136.3,138.9v.6h-.2l.2-.6ZM136.3,138.9v-.5h.1v.5h-.1ZM137,137v.5h-.2c0-.1,0-.3.2-.5ZM137.2,136.5v.6h-.1c0-.2,0-.4.1-.6ZM137.4,136v.5h-.2l.2-.5ZM137.6,141.4h0c0,0,0,0,0,0h0ZM137.7,135.1v-.5h.1v.5h-.1ZM138.4,133.2v.5h-.2l.2-.5ZM138.6,133.2h-.1q0,0,.1,0ZM138.8,132.3c0-.2,0-.4.1-.5v.5h-.1ZM138.9,131.2c.1-.1.2-.4.1-.5,0,.1-.1.3-.1.5ZM139.4,136.9c0,0-.1,0-.3,0h0c0,0,.1,0,.2,0ZM139.1,130.7c.2-.2.4-.5.4-.8,0-.1.2-.2.3-.4s0-.3,0-.5c-.3.2-.4.5-.4.8-.3.2-.3.6-.4.8ZM139.5,135.8h.1q0,0-.1,0ZM139.8,128.9l.3-.3c0-.2,0-.3,0-.6,0-.1.2-.2.3-.4,0-.1,0-.3,0-.5.1-.1.2-.3.3-.3,0-.2,0-.4,0-.6,0-.1.2-.2.3-.3,0,0,.1,0,.1,0h-.1v-.5c-.3.2-.3.5-.3.8-.2.3-.4.6-.4.9-.3.2-.4.5-.4.8-.2.3-.4.6-.4.8ZM139.8,129.5c0,0,.1,0,.1,0h-.1ZM140.8,132.5h.1c0,0-.1,0-.1,0ZM141.2,125.4c.2-.2.4-.5.4-.8.1,0,.1-.2.1-.3,0,0-.1.2-.1.3-.2.3-.4.6-.4.8ZM141.7,124.2c.1,0,.3-.2.4-.3,0-.1,0-.3,0-.4-.2.2-.3.5-.4.8ZM142.1,123.3c.1,0,.2-.1.2-.3-.1,0-.2.1-.2.3ZM142.2,129h0c0,0,0,0,0,0h0ZM142.3,123h.1c0,0,0-.2.2-.3v-.5h.1v-.3h.2v.3h-.1v.5c0-.1,0-.3.1-.5v-.3q0,0,0,0c0-.1,0-.3.1-.4v-.5c-.2.2-.4.5-.4.8,0,0-.1.2-.1.3-.2.3-.4.6-.4.8ZM142.6,122.7v.3c0,0,0-.2.1-.3h-.1ZM143.3,120.5v-.2c.1,0,.1,0,.1-.1q0,0,0,.1c0,0,0,.1,0,.2ZM143.9,119.3c0,0,0-.1.1-.3,0,0-.1.2-.1.3ZM143.9,124.6h.1c0,.1-.1.2-.1.4v-.4ZM144,118.9c0,0,.1-.1.1-.3,0,0-.1.2-.1.3ZM144.3,118.6h.1c0,0-.1,0-.1,0ZM144.6,117.7c0,0,0-.2.1-.3,0,0-.1.1-.1.3ZM144.7,117.4h.1c0,0,0-.1,0-.3,0,.1-.1.2-.2.3ZM145.8,120h.1c0,0,0,0-.1,0ZM145.9,120v-.4c0,.1,0,.2,0,.4h0ZM147.1,112.4v-.2c0,0,0,.1,0,.2ZM147.4,116.5h.1c0,.1-.1.2-.1.4v-.4ZM148.8,113.5s0,0,.1,0c0,0-.1.2-.1.3v-.3ZM149.9,111.8c0,0,0-.2,0-.3h0v.3ZM153.5,103.2s0,0,0-.1c-.1.3-.4.6-.5.8-.4.7-.8,1.3-1,2.1l.2-.2c.5-.8,1-1.6,1.3-2.5ZM155.9,100v-.3h.2l-.2.3ZM156.5,99.2v-.4h.1v.4ZM158.8,95.2h-.3c0,0,.2,0,.3,0ZM158.7,93.8c0,0,0,0,.1,0h0c0-.1,0-.1,0,0s0,0,0,.1Z"/>
              <path class="cls-1" d="M222,103.6c-.2.2-.4,0-.6,0-1.1-.6-2.3-.7-3.5-.8-1.6-.2-3.2-.3-4.8-.4-4.9-.3-9.8-.4-14.6-.3h-8.2c-3,0-6.1.1-9.2.2-3.7,0-7.5.2-11.2.4-1,0-2.2,0-3.2,0-.6,0-1,.2-1.3.7-.6,1.1-1.2,2.2-1.8,3.4h0c0,.3-.1.3-.2.5h0c0,.1-.1.2-.2.3-.1,0-.1.2-.2.4,0,0-.1.2-.1.3-.1,0-.1.2-.2.3,0,0-.1.2-.1.4l-.2.3c0,0-.1.2-.1.4-.1,0-.1.2-.2.3,0,.1,0,.3-.1.4-.1.1-.1.2-.2.3,0,0-.1.2-.1.4l-.2.3c0,.1,0,.3-.1.3,0,.1-.1.3-.2.4-.4.4-.6.9-.7,1.4,0,.1,0,.3-.1.3-.4.6-.7,1.3-.9,2,0,0-.1.2-.1.4-.1,0-.1.2-.2.3,0,.1,0,.2-.1.4-.3.3-.5.8-.6,1.3-.1.2-.2.4,0,.7,0,0-.1.2-.2.3h0c-.1.1-.4.2-.4.5,0,.1,0,.2-.1.4-.3.3-.5.8-.6,1.3h0c0,0,0,.1-.1.3-.2.3-.4.6-.4.9-.1,0-.1.2-.2.3-.1.3-.4.5-.3.8-.3.2-.3.6-.4.9v.4c-.6.7-.9,1.5-1,2.3,0,0,0,.2-.1.3,0,0,.1,0,.1,0h-.1l-.2.4c-.1.2,0,.3,0,.5l-.4.4c-.1.3-.3.6-.3.9-.1.1-.2.3-.2.5-.2.3-.4.6-.4.9,0,.1-.1.2-.1.3-.2.1-.2.3-.2.6,0,0-.1.2-.2.3,0,.1-.1.3-.1.5-.2.3-.4.6-.4.9,0,.2,0,.4,0,.6-.1.1-.3.3-.4.5,0,0,0,.2,0,.3l-.2.5q0,0-.1,0c-.2.4-.4.7-.4,1.1v.6c0,.1,0,.2-.1.3h0c0,.3-.4.4-.4.8,0,0,0,.2-.1.4s-.1.3-.1.5c0,0-.1.2-.1.3,0,.4,0,.7-.4,1s-.3.5-.3.8c-.5.9-.8,2-1,3-.2.3-.4.6-.4,1,0,.3-.2.6-.4.8-.1.3-.2.6-.3.8l-.2.8c-.2.4-.3.8-.3,1.2v.2c0,.3-.4.4-.4.7-.2.3-.3.7-.4,1-.4.8-.6,1.5-.7,2.3-.2.2-.4.5-.4.8l-.6,2.3c0,.1-.1.3-.2.5,0,.2-.1.3-.1.6l-.2.5c-.3.9-.6,1.9-.8,2.8-.2.4-.4.8-.4,1.3h0l-.2.6h0c-.2.3-.3.6-.4,1-.2.4-.4.8-.4,1.3,0,.1-.1.4-.1.5-.1.2-.2.5-.2.7,0,.2-.1.3-.1.6l-.2.6h0c-.1.6-.4,1.1-.5,1.8h0c-.2.4-.4.8-.4,1.2-.2.4-.4.8-.4,1.3-.2.2-.3.4-.4.7l-.4,1.4c-.1.4-.2.8-.2,1.3s-.1,1-.3,1.5c0,.3-.2.6-.5.8,0,0-.2,0-.3,0s-.1-.1-.2,0q-.4.3-.6,0c-.2-.2-.4-.3-.7-.4-.4,0-.6-.3-.4-.8.4-1.5.7-3,1.1-4.5.6-1.9,1.1-3.9,1.6-5.7.7-2.3,1.3-4.7,2.1-6.9.2-.8.4-1.5.6-2.2.4-1.2.8-2.4,1.1-3.6.3-1.1.6-2.2,1-3.4.3-1.3.8-2.5,1.2-3.6l1.6-5c.4-1.3.9-2.6,1.3-3.9.8-2.1,1.6-4.2,2.3-6.2.5-1.3,1.1-2.6,1.5-3.9.5-1.1.9-2.2,1.4-3.4l1.9-4.2c.7-1.8,1.7-3.6,2.5-5.4,1.1-2.6,2.5-5.1,3.8-7.6l1.4-2.7c.4-.8.3-.9-.5-.8-1.5,0-3.1.1-4.6.2l-7.1.4c-1.1,0-2.1.2-3.1.3l-2.4.2c-2.2.2-4.3.4-6.4.6-2.3.3-4.6.5-6.9.8l-4.7.6c-1.3.1-2.7.4-4,.5-1.3.2-2.5.4-3.8.6-1.4.2-2.8.3-4.2.6-1.7.2-3.3.4-4.9.7-1.5.2-3.2.3-4.7.4-.8,0-1.5,0-2.2-.1-.6,0-1.1-.2-1.3-.8v-.3c0,0,.2,0,.3,0,.6.2,1.2.2,1.8.1,1.3,0,2.5-.3,3.8-.6,2.4-.4,4.8-.8,7.1-1.2,1.4-.2,2.7-.5,4.1-.7,3.2-.6,6.4-1,9.5-1.5,1.6-.2,3.2-.4,4.8-.7,1.3-.2,2.7-.3,4.1-.5l3.9-.4c1.1-.1,2-.2,3.1-.3l4.8-.4c1.3-.1,2.6-.2,3.9-.3,1.9-.1,3.8-.2,5.6-.4h1.4c1.3,0,2.7-.1,4.1-.2.4,0,.6-.1.8-.4.2-.3.5-.6.6-1,.4-.8,1-1.6,1.5-2.5.6-1.1,1.3-2.2,2-3.3.7-1.1,1.4-2.3,2.2-3.4.7-.9,1.3-1.9,1.9-2.8,1-1.4,2-2.7,3-4.1,1.1-1.5,2.2-2.9,3.4-4.3.6-.8,1.3-1.5,2-2.3,0,0,.1-.1.3-.2.1-.1.3-.3.5-.1.3.1.4.3.4.6s0,.4-.1.6c-.2.3-.4.7-.7,1-1.1,1.7-2.3,3.3-3.5,5-1.1,1.6-2.2,3.2-3.2,4.9-.1.2-.3.6-.4.8h0c-.3.4-.6.7-.7,1-.3.2-.4.6-.6.8-.4.3-.5.7-.7,1-.4.6-.8,1.1-1.1,1.8-.4.5-.6,1-.9,1.5-.3.4-.5.8-.6,1.2,0,0-.1.2-.2.4-.3.2-.5.5-.5.8-.4.3-.6.8-.7,1.3l-.2.4c-.1,0-.1.2-.1.3,0,0-.1.1-.2.1h0c0,.1,0,.3-.1.4,0,0,0,0,.1,0,.2.2.5.2.7.2,1.5,0,2.9,0,4.4,0,1.8,0,3.6-.1,5.4-.1,4.7-.1,9.3-.1,13.9-.2,5.3,0,10.6,0,15.9,0,2.3,0,4.6.2,7,.4,1.5.1,3,.3,4.5.8,1,.3,1.8.9,2.5,1.7,0,.1.1.2.1.3.1.1.2.3.1.5ZM137.6,171.1c0,.1,0,.3-.1.4,0,0,.1,0,.1,0v-.5ZM137.9,170.9c0-.2,0-.4,0-.5-.1.2-.1.4-.2.6.2,0,.3,0,.3-.1ZM138.2,169.1c-.1.1-.1.4-.1.6-.1.2-.2.4-.2.6h.2v-.6c0-.2.1-.3.1-.6ZM138.4,168.5c-.1.1-.2.4-.2.6.1-.1.1-.4.2-.6ZM163.4,106c-.1,0-.2.1-.2.3-.1.1-.1.3-.1.4-.1,0-.2.1-.2.3-.3.2-.4.5-.5.8-1.5,3-3.1,6-4.5,9.1-1.5,3.3-2.9,6.7-4.3,10.1-1.5,3.9-3.1,7.9-4.5,12-1.5,4.1-2.9,8.3-4.2,12.5-2.1,6.4-4.1,12.8-6,19.3-.2.6-.4,1.3-.6,2q0,.2,0,.6c.2-.4.3-.8.4-1.2,1-3.7,2.1-7.4,3.2-11,1-3.1,2-6.2,3-9.2,1.3-4,2.6-7.9,4-11.8,1.3-3.8,2.7-7.6,4.2-11.4,1.3-3.3,2.6-6.5,4.1-9.7.8-1.8,1.6-3.5,2.5-5.3.8-1.8,1.7-3.6,2.6-5.4.2-.4.5-.8.6-1.3.1,0,.2-.2.2-.3.1,0,.1-.2.1-.4.1,0,.2-.2.2-.3ZM138.4,168.4c0-.1.1-.4.1-.6h.2c0-.2,0-.4,0-.7h.2c0-.2,0-.3.2-.6,0-.2,0-.4,0-.6-.1.3-.3.8-.4,1.2,0,.3,0,.5-.1.7-.1.2-.1.4-.1.6ZM139.1,165.9c0-.1.2-.3.4-.5,0,0,0-.3.1-.3.1,0,.1-.2.2-.3h0c.2-.4.4-.7.2-1v-.7c-.1.2-.1.4-.1.7-.4.6-.6,1.4-.7,2.2ZM139.9,162.9h.2c.1.1.1,0,.1,0,.1-.1.2-.3,0-.5l.2-.6c0-.1,0-.3.1-.4.1,0,.1-.2.2-.3,0-.1,0-.4,0-.5,0-.2,0-.4.1-.6,0-.2,0-.3.2-.5v-.7c.1-.1.1-.4.1-.6h.2c0-.2,0-.3.1-.5h0c0-.2,0-.4.2-.6,0-.1,0-.3.1-.3.1,0,.1-.2.1-.4l.2-.5c.1-.2.1-.3,0-.6,0-.2,0-.4.2-.6,0-.1,0-.3.1-.5,0-.1,0-.3.2-.4s.1-.2.1-.3c.1-.1.1-.3.2-.5,0-.2,0-.4,0-.6,0-.1,0-.2.2-.3.2-.1.4-.4,0-.7h0c0-.2,0-.3.1-.6,0,0,0-.2.2-.3.1,0,.1-.3.1-.4-.1-.1-.1-.3-.1-.6h.1v.5l.2-.5c0-.1.1-.4.1-.5-.1-.2-.1-.3-.1-.6h.1v.5c.1-.1.1-.3,0-.5,0-.2,0-.3.2-.5,0,0,0,0,.1,0h-.1c0-.2,0-.4.1-.6v.5c.1-.1.1-.3.2-.5,0-.1.1-.3.1-.5h-.1c0-.2,0-.4.1-.6v.5c.1-.1.1-.3.2-.5,0-.1.1-.4.1-.5h-.1c0-.2,0-.3.1-.6v.5c.1-.1.1-.3.2-.5,0-.2.1-.4,0-.5v.5h-.2c0-.2,0-.4.2-.6,0,0,0-.2.1-.3.3-.1.4-.4.4-.7.3-.6.5-1,.6-1.6.1-.1.1-.4.1-.6.1-.1.2-.3.2-.5,0-.2.1-.3.1-.6.1-.1.2-.3.2-.5.1-.1.1-.3.1-.6.1-.1.1-.3.2-.5.1-.2.1-.4.1-.6.1-.1.1-.3.2-.5h-.2v-.6c.1-.1.3-.2.4-.4v.5c.1-.1.2-.3.2-.5,0-.1.1-.3.1-.5.1-.2.2-.4.2-.6.2-.3.4-.5.1-.8l.2-.6q0,.1.1,0c.1-.1.2-.3.2-.5h-.2v-.6h.2v.5c.2-.2.3-.5.3-.8.1-.1.1-.4.1-.5.2-.3.4-.6.4-.9l.2-.5h-.2v-.5s0,0,0,0c-.4.8-.6,1.5-.9,2.2,0,.1,0,.3,0,.4-.1.1-.1.4-.1.6-.2.1-.3.3-.4.5-.3.8-.6,1.5-.8,2.2,0,.1,0,.4-.1.6-.1.1-.1.3-.1.6-.2.1-.3.4-.4.6l-3,9.1c0,.3-.2.6-.1.8-.3.3-.4.6-.3,1.1-.5.9-.8,1.8-.9,2.8-.1.1-.2.4-.3.6-.3.7-.5,1.4-.7,2.1,0,.2,0,.4,0,.6-.4.7-.6,1.5-.7,2.2-.1.1-.1.4-.1.6-.3.6-.5,1.1-.6,1.8-.3.6-.5,1.1-.5,1.8-.2.1-.2.3-.2.5ZM144.3,150h-.2c0,0,.1-.1.2,0ZM144.8,147.9c0-.1.1-.3.2-.5v.5h-.2ZM145.2,146.8c0-.1.1-.4.2-.5v.5h-.2ZM146,144.2h0,0c0,0,0,0,0,0ZM146.2,144.2c0,0-.1,0-.1,0,0,0,0-.1,0-.1s0,.1,0,.2ZM146.8,142.1v.6c0,0-.1,0-.2,0,0-.1,0-.4.2-.5ZM146.9,141.6v.5h-.1c0-.1,0-.3.1-.5ZM147.1,141v.6h-.2c0-.2,0-.3.2-.6ZM147.3,140.5v.5h-.1c0-.1,0-.4.1-.5ZM147.5,140v.6h-.2l.2-.6ZM147.3,146.3h0c0,0,0,0,0,0h0ZM147.6,139.5v.5h-.1c0-.1,0-.3.1-.5ZM147.8,138.9v.6h-.2l.2-.6ZM147.8,138.9v-.5h.1v.5h-.1ZM148.5,137v.5h-.2c0-.1,0-.3.2-.5ZM148.7,136.5v.6h-.1c0-.2,0-.4.1-.6ZM148.9,136v.5h-.2l.2-.5ZM149.1,141.4h0c0,0,0,0,0,0h0ZM149.2,135.1v-.5h.1v.5h-.1ZM149.9,133.2v.5h-.2l.2-.5ZM150.1,133.2h-.1q0,0,.1,0ZM150.3,132.3c0-.2,0-.4.1-.5v.5h-.1ZM150.4,131.2c.1-.1.2-.4.1-.5,0,.1-.1.3-.1.5ZM150.8,136.9c0,0-.1,0-.3,0h0c0,0,.1,0,.2,0ZM150.6,130.7c.2-.2.4-.5.4-.8,0-.1.2-.2.3-.4,0-.1,0-.3,0-.5-.3.2-.4.5-.4.8-.3.2-.3.6-.4.8ZM151,135.8h.1q0,0-.1,0ZM151.3,128.9l.3-.3c0-.2,0-.3,0-.6,0-.1.2-.2.3-.4,0-.1,0-.3,0-.5.1-.1.2-.3.3-.3,0-.2,0-.4,0-.6,0-.1.2-.2.4-.3,0,0,.1,0,.1,0h-.1v-.5c-.3.2-.4.5-.4.8-.2.3-.3.6-.3.9-.3.2-.4.5-.4.8-.2.3-.4.6-.4.8ZM151.3,129.5c0,0,.1,0,.1,0h-.1ZM152.2,132.5h.1c0,0-.1,0-.1,0ZM152.7,125.4c.2-.2.4-.5.4-.8.1,0,.1-.2.1-.3,0,0-.1.2-.1.3-.2.3-.4.6-.4.8ZM153.2,124.2c.1,0,.3-.2.4-.3,0-.1,0-.3,0-.4-.2.2-.3.5-.4.8ZM153.6,123.3c.1,0,.2-.1.2-.3-.1,0-.2.1-.2.3ZM153.6,129h0c0,0,0,0,0,0h0ZM153.8,123h.1c0,0,0-.2.2-.3v-.5h.1v-.3h.2v.3h-.1v.5c0-.1,0-.3.1-.5v-.3q0,0,0,0c0-.1,0-.3.1-.4v-.5c-.2.2-.3.5-.3.8,0,0-.1.2-.1.3-.2.3-.4.6-.4.8ZM154.1,122.7v.3c0,0,0-.2.1-.3h-.1ZM154.8,120.5v-.2c.1,0,.1,0,.1-.1q0,0,0,.1c0,0,0,.1,0,.2ZM155.4,119.3c0,0,0-.1.1-.3,0,0-.1.2-.1.3ZM155.4,124.6h.1c0,.1-.1.2-.1.4v-.4ZM155.5,118.9c0,0,.1-.1.1-.3,0,0-.1.2-.1.3ZM155.7,118.6h.1c0,0-.1,0-.1,0ZM156.1,117.7c0,0,0-.2.1-.3,0,0-.1.1-.1.3ZM156.2,117.4h.1c0,0,0-.1,0-.3,0,.1-.1.2-.2.3ZM157.3,120h.1c0,0,0,0-.1,0ZM157.4,120v-.4c0,.1,0,.2,0,.4h0ZM158.5,112.4v-.2c0,0,0,.1,0,.2ZM158.9,116.5h.1c0,.1-.1.2-.1.4v-.4ZM160.3,113.5s0,0,.1,0c0,0-.1.2-.1.3v-.3ZM161.3,111.8c0,0,0-.2,0-.3h0v.3ZM165,103.2s0,0,0-.1c-.1.3-.4.6-.5.8-.4.7-.8,1.3-1,2.1l.2-.2c.5-.8,1-1.6,1.3-2.5ZM167.4,100v-.3h.2l-.2.3ZM168,99.2v-.4h.1v.4ZM170.3,95.2h-.3c0,0,.2,0,.3,0ZM170.2,93.8c0,0,0,0,.1,0h0c0-.1,0-.1,0,0s0,0,0,.1Z"/>
              <path class="cls-1" d="M179.1,143.9c-1.8.6-3.4,1.6-4.9,2.7-.7.5-1.5.9-2.2,1.3-1.3,1-2.7,1.8-4.1,2.7-1.2.9-2.5,1.8-3.6,2.7-.6.4-1.1.9-1.7,1.4h0c-.8.6-1.7,1.2-2.5,1.8-1.4,1-2.9,1.8-4.3,2.6-.8.4-1.7.7-2.6.8-1.1,0-2-.2-2.8-1-1.1-1.1-1.4-2.5-1.1-4.1.3-1.9,1-3.6,1.8-5.4.7-1.5,1.6-2.9,2.6-4.3.1-.2.3-.4.4-.7.3-.7.8-1.3,1.4-1.7.4-.3.8-.6,1-1,.8-.9,1.8-1.7,2.8-2.5.5-.3,1.1-.6,1.5-.8.8-.3,1.5-.2,2.2.4,1,1,1.1,1.8-.1,3.1-.9,1-1.9,2-3,2.7-1.1.7-2.2,1.4-3.5,1.6-.3,0-.6.2-.9.6-.2.2-.4.5-.6.8-.8,1.3-1.5,2.7-2.1,4,0,.1,0,.3-.1.4v.2c-.4.6-.4,1.1-.6,1.8-.2.7-.4,1.4-.4,2.2,0,.4,0,.9,0,1.3,0,.4.3.4.6.4.5,0,1-.3,1.4-.5,1.1-.5,2-1,2.9-1.7,1.7-1,3.3-2.2,4.9-3.2,2.5-1.7,5-3.4,7.5-5,2-1.3,3.9-2.5,6-3.6.5-.3,1.1-.6,1.6-.8.4-.2.6-.3,1-.5.4,0,.8,0,1,.3.3.3.7.6.6,1.1ZM157.7,143.8c.5,0,.9-.3,1.3-.6.4-.3.7-.5,1-.8.5-.4.9-.9,1.4-1.4,0,0,0-.2,0-.3,0,0-.1,0-.2,0-.7.3-1.4.7-1.8,1.3h0c0,0,0,.1-.1.1h0c-.6.5-1.1,1-1.4,1.6ZM158.1,155.6c0,0-.1,0-.1.1,0,0,0,0,.1-.1ZM158.2,155.5c.2,0,.3,0,.5-.3-.2,0-.4.1-.5.3ZM158.5,140.7h.2c0-.1-.1,0-.2,0ZM177.4,144.2c-.2,0-.3.1-.5.3-.1,0-.3,0-.4.1-.1,0-.3,0-.5.2-1.4.8-2.8,1.6-4.1,2.6-.5.2-1,.5-1.4.8-.3.2-.6.4-.9.6-1.3.8-2.5,1.7-3.6,2.6l-.7.4c-1.6,1.2-3.2,2.4-4.8,3.5-.3.2-.6.4-.8.7-.3,0-.4.1-.6.3-.2,0-.4.2-.6.4.2,0,.4-.1.6-.4.2,0,.4-.1.6-.3.4,0,.7-.4,1.1-.6,1.1-.7,2-1.5,3.1-2.2.8-.6,1.5-1.2,2.2-1.8,1.6-1,3.1-2,4.6-3.2.5-.2.9-.5,1.3-.9.1,0,.3,0,.4-.2,1.2-.7,2.5-1.5,3.6-2.2.2-.1.4-.2.4-.4l.4-.2c.2,0,.4-.1.5-.3ZM159.8,143.1c-.4.3-.8.5-1.1.8.4,0,.6-.1.8-.4.2,0,.3-.3.3-.5ZM158.7,140.5h.2v.2c0,0,0-.1.1-.2h.2c.2-.2.4-.3.6-.5.2-.1.4-.2.6-.3,0,0,0-.1,0-.2,0,0,0-.1,0-.1-.5.2-.9.4-1.3.8l-.2.2h-.2ZM158.7,142c.9-.6,1.7-1.3,2.6-1.9-.9.2-2,1-2.6,1.9ZM159,140.5h0c0-.1.1-.1.1-.1,0,0,0-.1,0-.2v.2c0,0,0,0,0,0,0,0,0,0,0,.1h-.1ZM159,155c.2,0,.4-.1.5-.3-.2,0-.3.1-.5.3ZM159.2,142.3c0,0-.1,0-.1,0h.1ZM159.7,144.4c-.2,0-.3.1-.5.3.2,0,.4,0,.5-.3ZM159.5,154.7c.1,0,.4-.1.5-.1,0-.1.2-.2.3-.4h.3c0,0,.1-.1.2-.2h0c0,.1.1,0,.2,0h-.2c0,0,.1-.1.2-.1,0,0,0,0,0-.1h.3c0-.1.1-.1.2-.2h0c0,0,.1,0,.1,0h-.1c0,0,.1-.1.2-.2h0c0,.1,0,0,.1,0,.1,0,.3-.1.4-.1l.2-.2h-.1.2c0-.1,0,0,0,0,0,0,0-.1.1-.1.2,0,.4-.2.6-.3h0c0-.1,0,0,0,0h0c0-.1,0-.1,0-.1.2,0,.4-.1.6-.4h0c0,0,0,0,0,0h0s0,0,.1,0l.2-.2c.2,0,.4-.1.6-.4,0,0,.1-.1.2-.1.2,0,.4-.2.6-.3l.2-.2c.1,0,.2-.1.4-.1l.2-.2c0,0,.1-.1.2-.1,0,0-.1,0-.1,0h0c0,0,0,0,.1,0,.1,0,.2,0,.4-.1l.2-.2c.2,0,.4-.2.6-.3l.2-.2c.2,0,.4-.2.6-.4,0,0,.1-.1.2-.1,0,0-.1,0-.1,0h0c0,0,0,0,.1,0,.1,0,.2,0,.4-.1,0,0,.1-.1.2-.1h-.2c0,0,0-.1,0-.2,0,0,0,.1.1.1.1,0,.3-.2.3-.3h.2c.2,0,.4-.2.6-.3l.2-.2c.1-.1.3-.2.4-.4q0,0,0-.1h.1c.1,0,.3,0,.4-.2h0c0,0,.1,0,.1,0,.2-.1.4-.3.6-.4h0c.2-.1.4-.3.6-.3h0c.2-.1.4-.2.6-.3l.6-.4c.1-.1.4-.2.6-.3.1-.1.3-.2.4-.4q0,0,0-.1h.1c.1,0,.3,0,.4-.2,0,0,0-.1,0-.2-.1,0-.4.1-.5.3-.3,0-.4.1-.6.4-.2,0-.4.1-.5.3-.3,0-.5.1-.6.3-.6.3-1.2.6-1.7,1.1-.2,0-.4.1-.6.3-.3,0-.4.1-.6.4-.5.2-.9.5-1.3.9-.2,0-.4.1-.6.3-.3,0-.6.3-.8.5-.5.2-.9.5-1.3.9-.3,0-.6.3-.8.5-.3,0-.6.3-.8.5-.3.1-.6.3-.8.6-.5.3-1.1.6-1.5,1-.4.1-.6.4-1,.7-.3.1-.5.3-.7.5-.3.1-.6.3-.8.6-.3.1-.6.3-.7.6ZM161,143.3c0,0-.1,0-.1,0-.4.2-.7.4-1,.8,0,0,0,.1-.1.1,0,0,.1,0,.1-.1.4,0,.8-.4,1-.7,0,0,.1,0,.1-.1ZM161.4,143c0,0-.1,0-.1.1,0,0,.1,0,.1-.1ZM161.8,153.1c0,0,0,.1,0,.1h-.1s0,0,0-.1ZM162.7,152.6v.2h-.1c0,0,.1-.1.1-.2ZM164.2,151.6h0q0,0-.1,0c0,0,0,0,.1,0ZM164.3,151.5c0,0,0,0,.1,0q0,0-.1,0ZM165,151.2h0q0,0,0,0ZM165.2,151c0,0-.1,0-.1,0h0c0,0,0,0,.1,0ZM165.8,150.3h.1c0,.1-.1.1-.2.1,0,0,0,0,0-.1ZM166.5,150h0c0,.1-.2.1-.2.1h.2ZM167.9,148.9h.1c0,.1-.1.1-.2.1q0,0,0-.1ZM170.6,147.2h.1c0,.1-.1.1-.2.1q0,0,0-.1ZM175.7,144c.1,0,.3,0,.4-.1h-.4ZM176.1,143.8c0,0,.2,0,.3-.1,0,0-.2,0-.3.1ZM176.5,143.6h.2c0-.1,0-.1-.1-.1,0,0,0,.1,0,.1ZM177.7,144c0,0-.2,0-.3.1,0,0,.2-.1.3-.1Z"/>
              <path class="cls-1" d="M204.7,144.6h.4c0,.1-.2.3-.4.3-.3.2-.6.4-.9.6-1.4.6-2.7,1.5-4.1,2.2l-.9.5c-1.3.8-2.7,1.6-4.1,2.5-.8.5-1.6.9-2.5,1.3-.5.1-.9.3-1.4.4-1.1.3-2,0-2.7-.9-.2-.3-.4-.5-.6-.8-.4-.6-.6-1-.4-1.8.2-.8.5-1.7.9-2.5l.4-1.1c0-.2,0-.3-.4-.3-.2,0-.5.1-.8.3-1.1.5-2.1,1-3.2,1.6-.6.4-1.1.8-1.6,1-.1,0-.3.2-.3.3-.4.2-.7.5-1.1.8h0c-1.1.9-2.2,1.8-3.4,2.7-.4.3-.8.6-1.4.8-.6.4-2,0-2.3-.6l-.4-.4c-.5-.5-.6-1-.4-1.6.2-.9.6-1.8,1.1-2.6.4-.7.8-1.3,1.1-2,.9-1.5,2-3.1,3.1-4.5.8-1.1,1.8-2.2,2.8-3.4.4-.4.9-.8,1.4-1.3.2-.1.4-.2.6,0,0,.1.3,0,.3.3s0,.4,0,.7l-.4.6c-1,1.5-2,2.8-2.9,4.3-.2.3-.4.6-.4.8-.7.8-1.3,1.8-1.8,2.7,0,0,0,.1,0,.3s-.1.1-.2.3v.2c0,.1-.2.3-.3.4-.1.1-.2.3-.1.5-.1.1-.2.3-.3.4-.4.1-.4.4-.4.8,0,.1.2.2.4.1.3-.1.5-.4.8-.6,1.5-1.3,3.2-2.5,5-3.5,1.1-.6,2.2-1.2,3.4-1.6.4-.2.9-.4,1.3-.5.9-.3,1.6,0,2.3.5.4.4.9.9,1.2,1.4.2.5.3.9.1,1.4,0,.8-.4,1.5-.6,2.2-.2.5-.4,1-.6,1.6,0,0,0,.1,0,.2h.3c.2,0,.4-.2.6-.3,1-.6,2.1-1,3-1.5,1.8-.9,3.6-1.8,5.3-2.7.7-.3,1.5-.6,2.1-.9.4-.2.7-.3,1-.5.3-.1.5-.2.7-.4.7-.3,1.3,0,1.7.5.1,0,.1.2,0,.3,0,0-.3.1-.3.4ZM177.2,149.9c.4-.1.6-.3.8-.6h.2c0,0,0,0,0,.1,0,0,0-.1.1-.1h.1q0-.1-.1-.1v-.2c.1,0,.1.1.2.2,0,0,.1-.1.2-.2h-.3c0-.1.3-.2.5-.3h0c0,.1,0,0,0,0h0c0,0,0-.1,0-.1,0,0,.1-.1.2-.1h0c0,.1-.1.1-.1.1h0c0,0,0,0,.1,0,.2,0,.3-.1.4-.3h-.3c0-.2.3-.4.5-.4h0c0,0,0,0,0,0h0c0,0,0,0,.1-.1,0-.1.2-.3.3-.4,0,0,.1,0,.3-.1.1-.1.2-.3.4-.3h0c0,0,.1,0,.1,0h-.1c0,0,.1,0,.1-.1l.2-.3h.3c0,0,0-.2.1-.3.2,0,.4-.1.4-.3.2,0,.3-.1.4-.3-.1,0-.3,0-.4.3-.1,0-.4.1-.5.3-.1,0-.4.1-.5.3-.3.1-.7.5-1,.8-.9.6-1.8,1.2-2.5,2-.3.1-.6.4-.7.6l-.2.2c0,0,.1-.1.2-.1ZM184,146.6c-.4,0-.6.1-.8.4-.1,0-.4,0-.5.2-1.6,1-3,2.2-4.5,3.4,0,0,0,.2-.1.3-.2,0-.4.1-.4.2.1,0,.3,0,.4-.2.4-.1.7-.5,1-.8,1.3-1,2.6-2.1,4-3v-.2c.5,0,.7-.2.9-.4ZM178.2,149.3c0,0,.1,0,.2-.1h0c0,.1-.2.1-.2.1ZM181.4,146.8h0c0,.1.2,0,.2,0h-.2ZM195.4,149.6c-.2,0-.4.1-.4.3.1,0,.3-.1.4-.3ZM196.1,149.1c-.1,0-.3.1-.4.3,0,0-.2,0-.2.1h.2c.2-.2.4-.3.4-.4ZM196.4,148.9c0,0-.1.1-.2.1.1,0,.2,0,.2-.1ZM197.2,148.5c-.2,0-.3.1-.4.3.1,0,.4,0,.4-.3ZM197.5,148.4c-.1,0-.2,0-.2,0,0,0,.1,0,.2,0ZM197.8,146.8h-.2c0,.1.1.1.2,0ZM197.8,148.2c0,0-.1,0-.2.1h.2ZM198.6,147.7c-.3.1-.6.1-.7.5.3-.1.5-.3.7-.5ZM198.9,147.6c-.1,0-.3,0-.3.1,0,0,.1,0,.3-.1ZM199.1,147.5s-.1,0-.2,0c.1,0,.2,0,.2,0ZM200,147c0,0-.2,0-.3.1.1,0,.2,0,.3-.1ZM200.3,146.9c0,0-.2,0-.2,0,0,0,.1,0,.2,0ZM201.7,146.1c-.1,0-.2,0-.3.1-.4,0-.6.2-.8.5.3-.1.6-.1.8-.5,0,0,.1,0,.3-.1ZM203,145.3c0,0,0,0-.1,0h0c0,.1,0,.1.1,0q0,0,0-.1Z"/>
              <path class="cls-1" d="M234.3,142.3c0,.2,0,.4-.1.6,0,0,0,.1-.1.2-1.1.9-2.3,1.8-3.5,2.7-1.6,1.3-3.3,2.5-4.8,3.8-2.7,2-5.4,4.1-8.1,6.2-.8.6-1.7,1.2-2.6,1.7-.4.2-.8.4-1.3.5-.6,0-1,0-1.3-.3l-.4-.2c-.6-.4-.9-1-.8-1.9.1-1,.3-2.2.8-3.1.3-.4.5-.8.6-1.3.6-1.5,1.5-2.9,2.3-4.3.8-1.5,1.7-3,2.6-4.5,1-1.4,2-2.9,3.1-4.3.1-.1.3-.4.6-.4.8.4.9.7.6,1.5-.3.8-.7,1.7-1.2,2.5-.3.6-.6,1.1-.9,1.7,0,0-.1.2-.1.3h.1c-.1.1-.2.2-.2.3-.3.2-.4.4-.6.7-.2.6-.6,1.1-.9,1.7,0,.2-.1.4-.3.6,0,.1-.1.2-.1.3q0,0,.1,0h-.1c-.4.4-.6.8-.8,1.3-.2.3-.5.6-.5,1.1-.3.3-.5.7-.6,1-.3.5-.6.9-.7,1.5,0,0,0,.1-.1.2-.6.8-.8,1.8-1.2,2.7,0,.3,0,.6,0,.8s.2.2.4.2c.1,0,.3-.1.3-.2l1.3-.8c.6-.4,1.2-.9,1.8-1.3,1.5-1.1,3-2.2,4.5-3.3,1.1-.8,2.2-1.5,3.3-2.4,1.6-1.2,3.3-2.4,4.9-3.6l2.9-2.1c.3-.3.6-.3,1-.1h.2ZM214.3,152.4h0c0,0,0,0,0,0ZM214.6,151.6c.1-.1.1-.3.2-.4,0-.1,0-.3.1-.3h0c0,0,0,.2-.1.3,0,.1,0,.2-.2.4h0ZM215.3,150.1q0,0,.1,0s0,0,0,0c0,0,0,0,0,.1ZM216.1,148.7c0-.1,0-.2,0-.3,0,0,0,.2,0,.3ZM224.1,134c-.2-.3-.5-.6-.3-1,0-.3.2-.6.3-.9.7-1.2,1.6-2.3,2.5-3.4.2-.3.5-.5.8-.7.3-.2.6-.2.8,0,.2.2.4.4.6.5-.2.3-.3.5-.6.7-.3.1-.5.3-.6.6-.1,0-.3.1-.3.5.1-.3.2-.3.4-.5.1-.2.3-.4.6-.6.3,0,.4-.1.8-.2-.2.2-.2.3-.3.3-.6.4-1.2.9-1.6,1.5-.5.7-1,1.4-1.3,2.2-.3.4-.6.8-.9,1.2-.3,0-.6,0-.8-.2ZM227.4,128.7h0c.1,0,.4,0,.4-.3h0c-.1,0-.2,0-.3,0,0,0,0,.1,0,.2Z"/>
              <path class="cls-1" d="M259.3,144.6h.3c0,.1-.2.3-.3.3-.3.2-.6.4-.9.6-1.4.6-2.7,1.5-4.1,2.2l-.9.5c-1.3.8-2.7,1.6-4.1,2.5-.8.5-1.6.9-2.5,1.3-.5.1-.9.3-1.4.4-1.1.3-2,0-2.7-.9-.2-.3-.4-.5-.6-.8-.3-.6-.6-1-.3-1.8.2-.8.5-1.7.9-2.5l.4-1.1c0-.2,0-.3-.4-.3-.2,0-.5.1-.8.3-1.1.5-2.1,1-3.2,1.6-.6.4-1.1.8-1.6,1-.1,0-.3.2-.3.3-.4.2-.7.5-1.1.8h0c-1.1.9-2.2,1.8-3.4,2.7-.4.3-.8.6-1.4.8-.6.4-2,0-2.3-.6l-.4-.4c-.5-.5-.6-1-.4-1.6.2-.9.6-1.8,1.1-2.6.4-.7.8-1.3,1.1-2,.9-1.5,2-3.1,3.1-4.5.8-1.1,1.8-2.2,2.8-3.4.4-.4.9-.8,1.4-1.3.2-.1.4-.2.6,0,0,.1.3,0,.3.3s0,.4,0,.7l-.4.6c-1,1.5-2,2.8-2.9,4.3-.2.3-.3.6-.4.8-.7.8-1.3,1.8-1.8,2.7,0,0,0,.1,0,.3,0,.1-.1.1-.2.3v.2c0,.1-.2.3-.3.4-.1.1-.2.3-.1.5-.1.1-.2.3-.3.4-.3.1-.4.4-.3.8,0,.1.2.2.3.1.3-.1.5-.4.8-.6,1.5-1.3,3.2-2.5,5-3.5,1.1-.6,2.2-1.2,3.4-1.6.4-.2.9-.4,1.3-.5.9-.3,1.6,0,2.3.5.4.4.9.9,1.2,1.4.2.5.3.9.1,1.4,0,.8-.3,1.5-.6,2.2-.2.5-.3,1-.6,1.6,0,0,0,.1,0,.2h.3c.2,0,.4-.2.6-.3,1-.6,2.1-1,3-1.5,1.8-.9,3.6-1.8,5.3-2.7.7-.3,1.5-.6,2.1-.9.3-.2.7-.3,1-.5.3-.1.5-.2.7-.4.7-.3,1.3,0,1.7.5.1,0,.1.2,0,.3,0,0-.3.1-.3.4ZM231.9,149.9c.4-.1.6-.3.8-.6h.2c0,0,0,0,0,.1,0,0,0-.1.1-.1h.1q0-.1-.1-.1v-.2c.1,0,.1.1.2.2,0,0,.1-.1.2-.2h-.3c0-.1.3-.2.5-.3h0c0,.1,0,0,0,0h0c0,0,0-.1,0-.1,0,0,.1-.1.2-.1h0c0,.1-.1.1-.1.1h0c0,0,0,0,.1,0,.2,0,.3-.1.4-.3h-.3c0-.2.3-.4.5-.4h0c0,0,0,0,0,0h0c0,0,0,0,.1-.1,0-.1.2-.3.3-.4,0,0,.1,0,.3-.1.1-.1.2-.3.4-.3h0c0,0,.1,0,.1,0h-.1c0,0,.1,0,.1-.1l.2-.3h.3c0,0,0-.2.1-.3.2,0,.4-.1.4-.3.2,0,.3-.1.4-.3-.1,0-.3,0-.4.3-.1,0-.4.1-.5.3-.1,0-.4.1-.5.3-.3.1-.7.5-1,.8-.9.6-1.8,1.2-2.5,2-.3.1-.6.4-.7.6l-.2.2c0,0,.1-.1.2-.1ZM238.7,146.6c-.3,0-.6.1-.8.4-.1,0-.4,0-.5.2-1.6,1-3,2.2-4.5,3.4,0,0,0,.2-.1.3-.2,0-.3.1-.4.2.1,0,.3,0,.4-.2.4-.1.7-.5,1-.8,1.3-1,2.6-2.1,4-3v-.2c.5,0,.7-.2.9-.4ZM232.9,149.3c0,0,.1,0,.2-.1h0c0,.1-.2.1-.2.1ZM236,146.8h0c0,.1.2,0,.2,0h-.2ZM250.1,149.6c-.2,0-.3.1-.4.3.1,0,.3-.1.4-.3ZM250.8,149.1c-.1,0-.3.1-.4.3s-.2,0-.2.1h.2c.2-.2.3-.3.4-.4ZM251.1,148.9c0,0-.1.1-.2.1.1,0,.2,0,.2-.1ZM251.9,148.5c-.2,0-.3.1-.4.3.1,0,.3,0,.4-.3ZM252.2,148.4c-.1,0-.2,0-.2,0,0,0,.1,0,.2,0ZM252.5,146.8h-.2c0,.1.1.1.2,0ZM252.5,148.2c0,0-.1,0-.2.1h.2ZM253.2,147.7c-.3.1-.6.1-.7.5.3-.1.5-.3.7-.5ZM253.6,147.6c-.1,0-.3,0-.3.1,0,0,.1,0,.3-.1ZM253.8,147.5s-.1,0-.2,0c.1,0,.2,0,.2,0ZM254.6,147c0,0-.2,0-.3.1.1,0,.2,0,.3-.1ZM254.9,146.9c0,0-.2,0-.2,0,0,0,.1,0,.2,0ZM256.3,146.1c-.1,0-.2,0-.3.1-.4,0-.6.2-.8.5.3-.1.6-.1.8-.5,0,0,.1,0,.3-.1ZM257.7,145.3c0,0,0,0-.1,0h0c0,.1,0,.1.1,0q0,0,0-.1Z"/>
            </g>
          </g>
          <g class="cls-2">
            <g class="cls-2">
              <path class="cls-1" d="M367.7,164.3c-.1.1-.4.1-.7,0h0c-1-.9-2.5-1.3-3.8-1.6-1.5-.4-3.1-.8-4.7-1.1l-9-1.5c-2.2-.3-4.6-.6-6.8-.8l-5.9-.6c-1.8-.1-3.6-.3-5.5-.5l-5.7-.4c-4.3-.3-8.8-.4-13.3-.3l-3.9.2c-2.2.1-4.5.3-6.7.5-.7,0-1.3,0-2,.2-.6,0-1,.4-1.1,1-.1.2-.3.4-.4.7-.9,1.6-1.8,3.2-3,4.6h0c-1.1,2.1-2.9,3.5-4.6,4.8-3.6,2.8-7.6,4.8-11.8,6.4-2.9,1.1-5.9,2-8.9,2.5-4,.7-8,1-11.9.9-2.6-.1-5.3-.4-7.7-1.1-1.5-.4-2.9-1.1-4.2-2-.6-.5-1.1-1.1-1.5-1.7-.5-.9-.4-1.8.3-2.8.2-.4.5-.7.8-1,1-.8,2-1.6,3.2-2.2,2.1-1.1,4.3-2,6.4-2.8,4-1.5,8.1-2.8,12.2-3.8,2.7-.7,5.4-1.4,8.1-2,3.7-.8,7.5-1.4,11.2-2.1l5.8-1c.7,0,1.3-.1,2-.2l1.4-.2c.1-.3.3-.5.4-.8.4-1.1.6-2.2.7-3.4.7-4.6-.2-8.6-2.2-12.3-1.5-2.9-3.6-5.5-5.9-7.8-2.6-2.7-5.5-5-8.5-7.3l-7.6-5.6c-1.6-1.2-3.1-2.5-4.5-3.8-.9-.9-1.7-1.9-2.4-3-.5-.7-.8-1.5-1-2.3-.6-1.9-.3-3.8.8-5.7.7-1.3,1.6-2.5,2.7-3.5,1.2-1.1,2.5-2.1,3.7-3.1.2-.2.4-.3.6-.4l2.4-1.5c1.8-1.2,3.7-2.2,5.7-3.2l6.7-3.2c3.6-1.6,7.2-2.9,10.9-4.1,3.6-1,7.3-2,10.9-2.6,3.4-.6,6.7-.8,9.9-.6,1.4,0,2.8.3,4.1.8.8.3,1.5.7,2.1,1.3.6.6.6,1.3,0,2.1,0,0-.1.1-.3.2,0-.3,0-.5.1-.7.2-.9-.1-1.5-.9-1.9-.7-.3-1.5-.5-2.4-.6-1.8-.3-3.6-.2-5.5,0-3.8.3-7.7,1-11.6,2.1-2.7.7-5.3,1.5-8,2.5-4.1,1.5-8.1,3.2-12,5.1-3.1,1.5-6.1,3.2-9,5-1.1.7-2,1.5-3,2.2-.3.3-.7.6-1.1.9-.7.5-1.3,1.1-2,1.8-.9,1-1.6,2.1-2,3.4-.2.8-.5,1.5-.5,2.4,0,1.2.2,2.2.7,3.2.8,1.3,1.7,2.3,2.8,3.3,1,.9,2.2,1.9,3.3,2.7l9,6.7c3,2.3,6,4.8,8.5,7.6,2,2.1,3.7,4.3,5.2,6.7.8,1.3,1.5,2.6,2,4.1,0,.3.2.5.3.7,1,2.6,1.5,5.3,1.4,8.3,0,.9-.2,1.9-.3,2.8,0,.4-.1.7,0,1.1.1,0,.4,0,.6,0,4.3-.4,8.5-.6,12.7-.6s4.1,0,6.2,0c2.4.1,4.8.3,7.2.5l7.4.6c2,.2,3.9.4,5.9.7l5.6.6c2.2.3,4.3.6,6.4,1,2.9.4,5.7,1,8.5,1.6,1.1.3,2.2.6,3.3.9,1,.3,2,.8,2.8,1.3.3.2.6.4.8.7.3.3.3.6,0,.8ZM246.3,171.6c0-.1-.1-.2-.3,0-.1,0-.2.3-.3.4.2,0,.3,0,.4,0,0-.1.1-.3.1-.4h0ZM247.6,171.9c-.5.4-.7.6-.8,1.1.4-.2.6-.5.8-1.1ZM291.8,163.9c1.1-1.3,2-2.8,2.9-4.2.1-.2.1-.4.2-.7-.3,0-.5,0-.7,0l-1.6.2c-2.9.4-5.7.8-8.7,1.3-2.9.6-6,1.2-9,1.8-3.3.7-6.7,1.6-9.9,2.5-3.1.9-6.2,2-9.3,3.2-2,.8-3.9,1.7-5.8,2.9-.9.6-1.7,1.3-2.4,2.1,0,.1-.2.3-.2.5,0,.8.2,1.5.8,2,.7.6,1.6.9,2.6,1.1,2.8.6,5.7.7,8.6.7s1.3,0,2-.1c1,0,2-.1,2.9-.3,2.7-.3,5.3-.8,8-1.6,4.2-1.3,8.2-2.9,12-5.2,2.7-1.8,5.3-3.6,7.4-6.1ZM268.2,102.4h.3c.1-.1.3-.3.4-.4v-.3h0v.3c.1-.2.3-.4.6-.6.4-.4.9-.8,1.4-1.3l1-1c0,0,.3-.2,0-.3-1.1.8-2.2,1.7-3.2,2.8-.3.2-.5.4-.6.8ZM272.2,100.2c-1.1.9-2.1,1.8-3,2.9-.2.2-.3.4-.3.6l.4-.3c1-1,2-2,3.1-2.9,0-.1.1-.2.3-.3h-.4ZM273.2,98.1h0c0,0,0,0,0,0h0ZM273.8,99.1s0,0,0,0c0,0,0,0,.1-.1h0c0,0-.1.1-.1.1ZM292.7,164.5c0,.1,0,.3,0,.4l.6-.6.5-.5c.4-.4.8-.8,1-1.3.1-.1.2-.3.3-.4l.2-.3h-.2c0-.2,0-.4.1-.6-.1.1-.3.3-.5.5-1,1.4-2,2.7-3.2,3.9-.1,0-.1.2-.2.3,0,0,0,0,0,0l1.3-1c0,0,0-.2,0-.3ZM297.6,160c-.8,1.1-1.5,2.2-2.2,3.3-.8,1-1.6,2.1-2.5,3.1,1.8-1.1,4.3-4.6,4.7-6.4ZM293.3,163.9c0,.1,0,.3,0,.3h-.2c.1,0,.2-.2.3-.3ZM293.7,163.7h0,0c0,0,0,0,0,0ZM295.1,161.7c0,0,0,.2,0,.3h-.2c0-.1.1-.3.3-.3ZM297.2,162.4h0,0ZM297.4,162h0c0,0,0,0,0,0-.1.1-.2.2-.3.4,0-.1.1-.3.2-.4ZM298.6,159.4c0,0,.1,0,.2,0-.1.2-.2,0-.2,0Z"/>
              <path class="cls-1" d="M388.4,95.6c-.2.2-.4,0-.6,0-1.1-.6-2.3-.7-3.5-.8-1.6-.2-3.2-.3-4.8-.4-4.9-.3-9.8-.4-14.6-.3h-8.2c-3,0-6.1.1-9.2.2-3.7,0-7.5.2-11.2.4-1,0-2.2,0-3.2,0-.6,0-1,.2-1.3.7-.6,1.1-1.2,2.2-1.8,3.4h0c0,.3-.1.3-.2.5h0c0,.1-.1.2-.2.3-.1,0-.1.2-.2.4,0,0-.1.2-.1.3-.1,0-.1.2-.2.3,0,0-.1.2-.1.4l-.2.3c0,0-.1.2-.1.4-.1,0-.1.2-.2.3,0,.1,0,.3-.1.4-.1.1-.1.2-.2.3,0,0-.1.2-.1.4l-.2.3c0,.1,0,.3-.1.3,0,.1-.1.3-.2.4-.4.4-.6.9-.7,1.4,0,.1,0,.3-.1.3-.4.6-.7,1.3-.9,2,0,0-.1.2-.1.4-.1,0-.1.2-.2.3,0,.1,0,.2-.1.4-.3.3-.5.8-.6,1.3-.1.2-.2.4,0,.7,0,0-.1.2-.2.3h0c-.1.1-.4.2-.4.5,0,.1,0,.2-.1.4-.3.3-.5.8-.6,1.3h0c0,0,0,.1-.1.3-.2.3-.3.6-.3.9-.1,0-.1.2-.2.3-.1.3-.4.5-.3.8-.3.2-.3.6-.4.9v.4c-.6.7-.9,1.5-1,2.3,0,0,0,.2-.1.3,0,0,.1,0,.1,0h-.1c0,.1-.1.3-.2.4-.1.2,0,.3,0,.5l-.4.4c-.1.3-.3.6-.3.9-.1.1-.2.3-.2.5-.2.3-.4.6-.4.9,0,.1-.1.2-.1.3-.2.1-.2.3-.2.6,0,0-.1.2-.2.3s-.1.3-.1.5c-.2.3-.4.6-.4.9,0,.2,0,.4,0,.6-.1.1-.3.3-.3.5,0,0,0,.2,0,.3l-.2.5q0,0-.1,0c-.2.4-.3.7-.4,1.1v.6c0,.1,0,.2-.1.3h0c0,.3-.4.4-.4.8,0,0,0,.2-.1.4,0,.1-.1.3-.1.5,0,0-.1.2-.1.3,0,.4,0,.7-.3,1-.2.2-.3.5-.3.8-.5.9-.8,2-1,3-.2.3-.4.6-.4,1,0,.3-.2.6-.3.8-.1.3-.2.6-.3.8l-.2.8c-.2.4-.3.8-.3,1.2v.2c0,.3-.4.4-.4.7-.2.3-.3.7-.3,1-.4.8-.6,1.5-.7,2.3-.2.2-.4.5-.4.8l-.6,2.3c0,.1-.1.3-.2.5,0,.2-.1.3-.1.6l-.2.5c-.3.9-.6,1.9-.8,2.8-.2.4-.4.8-.4,1.3h0l-.2.6h0c-.2.3-.3.6-.3,1-.2.4-.4.8-.4,1.3,0,.1-.1.4-.1.5-.1.2-.2.5-.2.7,0,.2-.1.3-.1.6l-.2.6h0c-.1.6-.3,1.1-.5,1.8h0c-.2.4-.4.8-.4,1.2-.2.4-.3.8-.3,1.3-.2.2-.3.4-.4.7l-.3,1.4c-.1.4-.2.8-.2,1.3s-.1,1-.3,1.5c0,.3-.2.6-.5.8,0,0-.2,0-.3,0,0-.1-.1-.1-.2,0q-.3.3-.6,0c-.2-.2-.3-.3-.7-.4-.4,0-.6-.3-.4-.8.4-1.5.7-3,1.1-4.5.6-1.9,1.1-3.9,1.6-5.7.7-2.3,1.3-4.7,2.1-6.9.2-.8.3-1.5.6-2.2.3-1.2.8-2.4,1.1-3.6.3-1.1.6-2.2,1-3.4.3-1.3.8-2.5,1.2-3.6l1.6-5c.4-1.3.9-2.6,1.3-3.9.8-2.1,1.6-4.2,2.3-6.2.5-1.3,1-2.6,1.5-3.9.5-1.1.9-2.2,1.4-3.4l1.9-4.2c.7-1.8,1.7-3.6,2.5-5.4,1.1-2.6,2.5-5.1,3.8-7.6l1.4-2.7c.4-.8.3-.9-.5-.8-1.5,0-3.1.1-4.6.2l-7.1.4c-1,0-2.1.2-3.1.3l-2.4.2c-2.2.2-4.3.4-6.4.6-2.3.3-4.6.5-6.9.8l-4.7.6c-1.3.1-2.7.4-4,.5-1.3.2-2.5.4-3.8.6-1.4.2-2.8.3-4.2.6-1.7.2-3.3.4-4.9.7-1.5.2-3.2.3-4.7.4-.8,0-1.5,0-2.2-.1-.6,0-1-.2-1.3-.8v-.3c0,0,.2,0,.3,0,.6.2,1.2.2,1.8.1,1.3,0,2.5-.3,3.8-.6,2.4-.4,4.8-.8,7.1-1.2,1.4-.2,2.7-.5,4.1-.7,3.2-.6,6.4-1,9.5-1.5,1.6-.2,3.2-.4,4.8-.7,1.3-.2,2.7-.3,4.1-.5l3.9-.4c1-.1,2-.2,3.1-.3l4.8-.4c1.3-.1,2.6-.2,3.9-.3,1.9-.1,3.8-.2,5.6-.4h1.4c1.3,0,2.7-.1,4.1-.2.4,0,.6-.1.8-.4.2-.3.5-.6.6-1,.4-.8,1-1.6,1.5-2.5.6-1.1,1.3-2.2,2-3.3.7-1.1,1.4-2.3,2.2-3.4.7-.9,1.3-1.9,1.9-2.8,1-1.4,2-2.7,3-4.1,1-1.5,2.2-2.9,3.4-4.3.6-.8,1.3-1.5,2-2.3,0,0,.1-.1.3-.2.1-.1.3-.3.5-.1.3.1.4.3.4.6s0,.4-.1.6c-.2.3-.4.7-.7,1-1.1,1.7-2.3,3.3-3.5,5-1,1.6-2.2,3.2-3.2,4.9-.1.2-.3.6-.4.8h0c-.3.4-.6.7-.7,1-.3.2-.4.6-.6.8-.3.3-.5.7-.7,1-.4.6-.8,1.1-1,1.8-.3.5-.6,1-.9,1.5-.3.4-.5.8-.6,1.2,0,0-.1.2-.2.4-.3.2-.5.5-.5.8-.4.3-.6.8-.7,1.3l-.2.4c-.1,0-.1.2-.1.3,0,0-.1.1-.2.1h0c0,.1,0,.3-.1.4,0,0,0,0,.1,0,.2.2.5.2.7.2,1.5,0,2.9,0,4.4,0,1.8,0,3.6-.1,5.4-.1,4.7-.1,9.3-.1,13.9-.2,5.3,0,10.6,0,15.9,0,2.3,0,4.6.2,7,.4,1.5.1,3,.3,4.5.8,1,.3,1.8.9,2.5,1.7,0,.1.1.2.1.3.1.1.2.3.1.5ZM304,163.1c0,.1,0,.3-.1.4,0,0,.1,0,.1,0v-.5ZM304.3,162.9c0-.2,0-.4,0-.5-.1.2-.1.4-.2.6.2,0,.3,0,.3-.1ZM304.6,161.1c-.1.1-.1.4-.1.6-.1.2-.2.4-.2.6h.2v-.6c0-.2.1-.3.1-.6ZM304.8,160.5c-.1.1-.2.4-.2.6.1-.1.1-.4.2-.6ZM329.8,98c-.1,0-.2.1-.2.3-.1.1-.1.3-.1.4-.1,0-.2.1-.2.3-.3.2-.3.5-.5.8-1.5,3-3.1,6-4.5,9.1-1.5,3.3-2.9,6.7-4.3,10.1-1.5,3.9-3.1,7.9-4.5,12-1.5,4.1-2.9,8.3-4.2,12.5-2.1,6.4-4.1,12.8-6,19.3-.2.6-.4,1.3-.6,2q0,.2,0,.6c.2-.4.4-.8.4-1.2,1-3.7,2.1-7.4,3.2-11,1-3.1,2-6.2,3-9.2,1.3-4,2.6-7.9,4-11.8,1.3-3.8,2.7-7.6,4.2-11.4,1.3-3.3,2.6-6.5,4.1-9.7.8-1.8,1.6-3.5,2.5-5.3.8-1.8,1.7-3.6,2.6-5.4.2-.4.5-.8.6-1.3.1,0,.2-.2.2-.3.1,0,.1-.2.1-.4.1,0,.2-.2.2-.3ZM304.8,160.4c0-.1.1-.4.1-.6h.2c0-.2,0-.4,0-.7h.2c0-.2,0-.3.2-.6,0-.2,0-.4,0-.6-.1.3-.3.8-.4,1.2,0,.3,0,.5-.1.7-.1.2-.1.4-.1.6ZM305.5,157.9c0-.1.2-.3.4-.5,0,0,0-.3.1-.3.1,0,.1-.2.2-.3h0c.2-.4.4-.7.2-1v-.7c-.1.2-.1.4-.1.7-.4.6-.6,1.4-.7,2.2ZM306.3,154.9h.2c.1.1.1,0,.1,0,.1-.1.2-.3,0-.5l.2-.6c0-.1,0-.3.1-.4.1,0,.1-.2.2-.3,0-.1,0-.4,0-.5,0-.2,0-.4.1-.6,0-.2,0-.3.2-.5v-.7c.1-.1.1-.4.1-.6h.2c0-.2,0-.3.1-.5h0c0-.2,0-.4.2-.6,0-.1,0-.3.1-.3.1,0,.1-.2.1-.4l.2-.5c.1-.2.1-.3,0-.6,0-.2,0-.4.2-.6,0-.1,0-.3.1-.5,0-.1,0-.3.2-.4.1,0,.1-.2.1-.3.1-.1.1-.3.2-.5,0-.2,0-.4,0-.6,0-.1,0-.2.2-.3.2-.1.3-.4,0-.7h0c0-.2,0-.3.1-.6,0,0,0-.2.2-.3.1,0,.1-.3.1-.4-.1-.1-.1-.3-.1-.6h.1v.5l.2-.5c0-.1.1-.4.1-.5-.1-.2-.1-.3-.1-.6h.1v.5c.1-.1.1-.3,0-.5,0-.2,0-.3.2-.5,0,0,0,0,.1,0h-.1c0-.2,0-.4.1-.6v.5c.1-.1.1-.3.2-.5,0-.1.1-.3.1-.5h-.1c0-.2,0-.4.1-.6v.5c.1-.1.1-.3.2-.5,0-.1.1-.4.1-.5h-.1c0-.2,0-.3.1-.6v.5c.1-.1.1-.3.2-.5,0-.2.1-.4,0-.5v.5h-.2c0-.2,0-.4.2-.6,0,0,0-.2.1-.3.3-.1.3-.4.3-.7.3-.6.5-1,.6-1.6.1-.1.1-.4.1-.6.1-.1.2-.3.2-.5,0-.2.1-.3.1-.6.1-.1.2-.3.2-.5.1-.1.1-.3.1-.6.1-.1.1-.3.2-.5.1-.2.1-.4.1-.6.1-.1.1-.3.2-.5h-.2v-.6c.1-.1.3-.2.3-.4v.5c.1-.1.2-.3.2-.5,0-.1.1-.3.1-.5.1-.2.2-.4.2-.6.2-.3.4-.5.1-.8l.2-.6q0,.1.1,0c.1-.1.2-.3.2-.5h-.2v-.6h.2v.5c.2-.2.3-.5.4-.8.1-.1.1-.4.1-.5.2-.3.4-.6.4-.9l.2-.5h-.2v-.5s0,0,0,0c-.3.8-.6,1.5-.9,2.2,0,.1,0,.3,0,.4-.1.1-.1.4-.1.6-.2.1-.3.3-.3.5-.3.8-.6,1.5-.8,2.2,0,.1,0,.4-.1.6-.1.1-.1.3-.1.6-.2.1-.3.4-.3.6l-3,9.1c0,.3-.2.6-.1.8-.3.3-.4.6-.4,1.1-.5.9-.8,1.8-.9,2.8-.1.1-.2.4-.3.6-.3.7-.5,1.4-.7,2.1,0,.2,0,.4,0,.6-.3.7-.6,1.5-.7,2.2-.1.1-.1.4-.1.6-.3.6-.5,1.1-.6,1.8-.3.6-.5,1.1-.5,1.8-.2.1-.2.3-.2.5ZM310.7,142h-.2c0,0,.1-.1.2,0ZM311.2,139.9c0-.1.1-.3.2-.5v.5h-.2ZM311.6,138.8c0-.1.1-.4.2-.5v.5h-.2ZM312.4,136.2h0,0c0,0,0,0,0,0ZM312.6,136.2c0,0-.1,0-.1,0,0,0,0-.1,0-.1s0,.1,0,.2ZM313.2,134.1v.6c0,0-.1,0-.2,0,0-.1,0-.4.2-.5ZM313.3,133.6v.5h-.1c0-.1,0-.3.1-.5ZM313.5,133v.6h-.2c0-.2,0-.3.2-.6ZM313.7,132.5v.5h-.1c0-.1,0-.4.1-.5ZM313.9,132v.6h-.2l.2-.6ZM313.7,138.3h0c0,0,0,0,0,0h0ZM314,131.5v.5h-.1c0-.1,0-.3.1-.5ZM314.2,130.9v.6h-.2l.2-.6ZM314.2,130.9v-.5h.1v.5h-.1ZM314.9,129v.5h-.2c0-.1,0-.3.2-.5ZM315.1,128.5v.6h-.1c0-.2,0-.4.1-.6ZM315.3,128v.5h-.2l.2-.5ZM315.5,133.4h0c0,0,0,0,0,0h0ZM315.6,127.1v-.5h.1v.5h-.1ZM316.3,125.2v.5h-.2l.2-.5ZM316.5,125.2h-.1q0,0,.1,0ZM316.7,124.3c0-.2,0-.4.1-.5v.5h-.1ZM316.8,123.2c.1-.1.2-.4.1-.5,0,.1-.1.3-.1.5ZM317.2,128.9c0,0-.1,0-.3,0h0c0,0,.1,0,.2,0ZM317,122.7c.2-.2.3-.5.3-.8,0-.1.2-.2.3-.4,0-.1,0-.3,0-.5-.3.2-.4.5-.4.8-.3.2-.3.6-.3.8ZM317.4,127.8h.1q0,0-.1,0ZM317.7,120.9l.3-.3c0-.2,0-.3,0-.6,0-.1.2-.2.3-.4,0-.1,0-.3,0-.5.1-.1.2-.3.3-.3,0-.2,0-.4,0-.6,0-.1.2-.2.3-.3,0,0,.1,0,.1,0h-.1v-.5c-.3.2-.3.5-.3.8-.2.3-.3.6-.3.9-.3.2-.4.5-.4.8-.2.3-.3.6-.3.8ZM317.7,121.5c0,0,.1,0,.1,0h-.1ZM318.6,124.5h.1c0,0-.1,0-.1,0ZM319.1,117.4c.2-.2.4-.5.4-.8.1,0,.1-.2.1-.3,0,0-.1.2-.1.3-.2.3-.4.6-.4.8ZM319.6,116.2c.1,0,.3-.2.4-.3,0-.1,0-.3,0-.4-.2.2-.3.5-.4.8ZM320,115.3c.1,0,.2-.1.2-.3-.1,0-.2.1-.2.3ZM320,121h0c0,0,0,0,0,0h0ZM320.2,115h.1c0,0,0-.2.2-.3v-.5h.1v-.3h.2v.3h-.1v.5c0-.1,0-.3.1-.5v-.3q0,0,0,0c0-.1,0-.3.1-.4v-.5c-.2.2-.3.5-.3.8,0,0-.1.2-.1.3-.2.3-.3.6-.3.8ZM320.5,114.7v.3c0,0,0-.2.1-.3h-.1ZM321.2,112.5v-.2c.1,0,.1,0,.1-.1q0,0,0,.1c0,0,0,.1,0,.2ZM321.8,111.3c0,0,0-.1.1-.3,0,0-.1.2-.1.3ZM321.8,116.6h.1c0,.1-.1.2-.1.4v-.4ZM321.9,110.9c0,0,.1-.1.1-.3,0,0-.1.2-.1.3ZM322.1,110.6h.1c0,0-.1,0-.1,0ZM322.5,109.7c0,0,0-.2.1-.3,0,0-.1.1-.1.3ZM322.6,109.4h.1c0,0,0-.1,0-.3,0,.1-.1.2-.2.3ZM323.7,112h.1c0,0,0,0-.1,0ZM323.8,112v-.4c0,.1,0,.2,0,.4h0ZM324.9,104.4v-.2c0,0,0,.1,0,.2ZM325.3,108.5h.1c0,.1-.1.2-.1.4v-.4ZM326.7,105.5s0,0,.1,0c0,0-.1.2-.1.3v-.3ZM327.7,103.8c0,0,0-.2,0-.3h0v.3ZM331.4,95.2s0,0,0-.1c-.1.3-.3.6-.5.8-.3.7-.8,1.3-1,2.1l.2-.2c.5-.8,1-1.6,1.3-2.5ZM333.8,92v-.3h.2l-.2.3ZM334.4,91.2v-.4h.1v.4ZM336.7,87.2h-.3c0,0,.2,0,.3,0ZM336.6,85.8c0,0,0,0,.1,0h0c0-.1,0-.1,0,0s0,0,0,.1Z"/>
              <path class="cls-1" d="M345.9,136l-1.3,1.2c-.1.1-.3.3-.6.4h0c0,0,0,0-.1,0v.2c-.2,0-.3,0-.3.1,0,0-.1,0-.1.1l-.4.2c-1,1.1-2,2-3.1,3.1,0,0-.1.2-.2.3,0,0-.1,0-.1.1,0,0-.1,0-.1.1,0,0,0,0,.1-.1,0,0,0,0,.1-.1.3,0,.4-.3.6-.5.2-.3.4-.6.8-.7,0,.3-.3.4-.5.6-1.1,1.3-2.3,2.5-3.5,3.8-.7.8-1.4,1.6-2.2,2.4-1,1.3-2.2,2.4-3.4,3.4-.3.3-.6.5-1,.7-.6.3-1.3.3-1.8-.2l-.3-.2c-.4-.4-.6-.8-.6-1.4s0-1,.2-1.6c.5-2.2,1.3-4.3,2.1-6.4.2-.8.5-1.5.8-2.2,0-.1.1-.4.1-.5,0-.1,0-.2,0-.3-.3,0-.3-.3-.3-.6v-.8c0-.2-.2-.2-.4-.2h0c0,0,0,.1-.1.2h0c0-.1-.1,0-.1,0h0c0,.1-.1.3-.3.4,0,0,0,.1-.1.1v.2q0,0,0,0c0,0,0,0-.1.1-1.6,2-3.5,3.6-5.7,4.9-.5.3-1,.5-1.6.6-.4,0-.8,0-1.2,0-.8-.3-1.3-.9-1.7-1.7-.1-.2-.1-.5,0-.8,0-.6.2-1.1.4-1.6.3-.6.6-1,.8-1.5.8-1.1,1.8-2.2,2.9-2.9,1.3-.8,2.5-1.3,4.1-1.3.4,0,.8.1,1.3.3s.5.1.8-.3c.5-.8,1-1.5,1.5-2.2h.3c0,.1,0,0,0,0,1.1-1.2,2.1-2.6,3.3-3.7.2-.3.5-.6.8-.8.3-.3.6-.3.9,0,.2.1.3.2.5.4.6.4.8.9.6,1.6-.3,1-.6,2-1.1,2.8-.1.2-.2.4-.3.6l.2-.3c0,.2,0,.4-.3.6v-.3c0,.4-.2.6-.4,1v.3c0,0,.3.2.3.2,0,0,0,.2-.1.3,0,.2,0,.4-.1.5-.3.4-.6.8-.6,1.3-.3.4-.5.7-.5,1.1,0,0-.1.1-.1.3h0c-.2.3-.3.6-.5,1-.1.2-.3.5-.3.8-.1.1-.1.3-.2.5h0c-.2.2-.3.5-.3.8,0,0,0,.2-.1.3-.2.1-.3.4-.4.6l-1,2.9c-.1.3-.3.6-.3,1-.5.9-.8,1.8-.9,2.8-.2.3-.3.8-.3,1.2h0q.3.3.5.1l.6-.5c1.1-1.2,2.3-2.5,3.5-3.6s2.1-2.1,3.2-3.1c1.1-1.2,2.3-2.3,3.5-3.4,1.1-1,2.2-2.2,3.4-3.1.1,0,.2-.1.3-.2.4-.4.5-.4.9,0,.4.3.4.4,0,.7ZM326.5,137.6l1.3-1.7c.2-.2.4-.5.6-.8,0,0,0-.2-.1-.3h-.4c-.6,0-1.2.1-1.8.4-.6.3-1.3.7-1.8,1.1-.2.1-.4.4-.7.4.1-.3.5-.4.6-.7.2,0,.4-.1.4-.3-.2,0-.4.1-.5.3-.8.5-1.5,1.1-2,2-.2,0-.3.4-.4.6.2,0,.4-.3.4-.6.3-.1.4-.3.6-.5.2-.2.4-.5.7-.6,0,.3-.2.5-.4.7-.6.5-1,1.1-1.5,1.8-.4.6-.6,1.4-.7,2.1,0,.3.1.4.4.3.4-.2.9-.4,1.3-.8,1.4-1.1,2.7-2.2,3.8-3.5ZM321.5,139c.2,0,.3-.2.3-.4-.1,0-.2.2-.3.4ZM321.7,137.3h.1c0-.1.1-.1.1-.1h0c0,.1.1,0,.1,0,0,0,0-.1.1-.1h-.1c0,.1-.1.1-.1.1h0c0-.1,0,0-.1,0,0,0-.1,0-.1.1ZM322,136.9h.1c0,0,0,0-.1,0ZM322.1,136.8h.1c0,.1.1,0,.1,0h-.1c0,0,0,0-.1,0ZM322.3,136.7h0c0,0,0,0,0,0ZM322.5,136.8s0,0,.1-.1c.3-.3.8-.6.9-1.1,0,0,0,0,.1-.1.1,0,.2,0,.3-.1,0,0-.2,0-.3.1h-.2c-.4.3-.8.6-1,1,0,0,0,0,.1.1h-.1ZM326.1,139.5h0c0,0,0,0,.1,0h-.1c0,0,0-.1.1-.2h0c0,.1,0,0,.1,0s.1,0,.1-.1h-.1c0,0,.1,0,.1-.1q0,0,0,.1c0,0,0,0,0-.1h-.1c0,0,.1-.1.2-.1h0c0,0,0,0,.1,0,.3-.2.5-.4.6-.8h-.1c0,0,.1-.1.2-.1h0c0,.1,0,0,.1,0h.1c0-.1-.1-.1-.1-.1,0,0,0-.1.1-.2h0c0,.1,0,0,.1,0,.1,0,.3-.3.3-.4h.1c0-.1,0-.1-.1-.1h0c0,.1,0,.1-.1.1,0,0,.1-.1.1-.2,0,0,.1,0,.2-.1h0c0,.1,0,0,.1,0h-.1v-.3c0,0,0,0,.1-.1h.1v.3c.1-.1.3-.3.3-.4h-.1c0,0,0-.1.1-.1h0c0,0,.1,0,.2,0h-.2v-.3c-.2.1-.3.3-.4.6,0,0-.1,0-.2.1-.2.1-.3.4-.5.6,0,0,0,.1-.1.1-.3.4-.6.7-.9,1-.5.6-1,1-1.5,1.6.2,0,.4-.2.6-.3,0,0,0-.1.1-.1ZM326.1,140.9c-.1,0-.3,0-.4.2.1,0,.3-.1.4-.2ZM330.3,136.4c0,0,0-.1,0-.2,0,0-.1,0-.1,0l-.3.3c-.8,1.1-1.8,2.2-2.8,3.2l-.3.4c0,0,0,0-.1.1-.1,0-.2.1-.3.4.1,0,.3-.1.3-.3h.1c.3-.3.4-.4.6-.6,1-1,1.9-2.1,2.8-3.2q0,0,0-.1ZM326.4,139.1h0q0,.1-.1.1c0,0,0,0,.1-.1ZM327.7,137.8h0c0,.1-.1.1-.1.1,0,0,0-.1.1-.1ZM328,137.3v.3h-.1c0,0,0-.1,0-.2h0ZM328,137.2h0c0,0,0,0-.1.1q0,0,0-.1ZM329.2,135.6h.1c0,0,0-.1.1-.1-.2-.1-.3-.1-.3.1ZM329.6,137.8h.1s0,0-.1,0h0ZM331.7,134.4c.3-.4.7-.8,1-1.3h0l-.2.2q0,0,.1,0c0,.1-.2.2-.4.3v.2c-.1,0-.1,0-.2.1h0c0,0-.2.1-.2.1,0,.1,0,.3-.1.4l-.3.3c0,0,0,0,0,0-.1.1-.2.4-.3.5h0c0,.2.1.1.1.1.3-.3.5-.6.6-.9ZM331,144.6c.1-.2.3-.4.3-.7-.2.2-.2.4-.3.7ZM333,133.2l-1.6,2.2c-.2.4-.2.7,0,1.2,0,.3,0,.6.1.8,0,0,0,.2.1.2,0,0,.1-.1.1-.2.2-.4,1.7-4,1.3-4.3ZM332.1,141.8h0c0,0,0,0,0,0ZM332.6,133.1c0,0,0,0,0,.1q0,0,0-.1ZM332.8,131c.1,0,.3-.1.4-.4v-.2c.3,0,.5-.1.6-.3,0,0,0-.1.1-.2h0c0,0,0,0,.1,0,.2,0,.3-.2.4-.4v-.2c0,0,0,0,0,0,0,0,0-.1,0-.2h.1c0-.1,0,0-.1,0-.3.1-.5.4-.6.6-.2.1-.4.4-.5.6,0,0-.1.1-.1.2l-.3.4ZM333.6,138.1c-.2.2-.3.4-.4.7.2-.2.3-.4.4-.7ZM333.9,129.8q0,0,.1,0t-.1,0h0ZM333.9,138.6h0c0,0,0,0,0,0,0,0,0,0,0,0ZM334.4,136.2c-.1.1-.1.3-.1.4,0-.1,0-.3.1-.4ZM334.5,128.9c.2,0,.3-.2.4-.4,0,0,.1,0,.1,0h0q0-.1-.1,0c0,0,0,0,0,.1-.2.1-.3.3-.4.4ZM335,134.9c0,0,0,0-.1.1,0,0,0,.1,0,.1h0v-.3ZM336.8,143.7c-.6.5-1.1,1.1-1.7,1.8-.1,0-.1.2-.2.4.6-.5,1.2-1.2,1.8-1.8,0,0,.1-.1.1-.3ZM336.5,145.3c0,0,0,0-.1.1-.6.4-1.1,1-1.3,1.5.6-.4,1-.9,1.3-1.5,0,0,.1,0,.1-.1ZM335.4,133.8c-.2.2-.3.4-.3.7.1-.2.3-.4.3-.7ZM335.9,134.2c0,0,0-.2,0-.3h0v.3ZM336.6,145.1h-.1c0,.1.1,0,.1,0ZM336.8,144.9q0,0,0,.1c0,0,0,0,0-.1ZM339.4,142.2c-.1,0-.1,0-.2.1h-.1c0,.1,0,.2-.1.3s-.1,0-.1.1h-.1c-.7.7-1.3,1.3-1.8,2,0,0,0,.1,0,.2.7-.6,1.3-1.2,1.8-2,0,0,.1,0,.1-.1h.1c0-.2.1-.3.2-.3h.1c0-.1,0-.2.1-.3ZM337.6,142.9q0,0,0,0h0ZM337.9,142.6c.5-.2.8-.6,1-1-.4.3-.8.6-1,1ZM340.6,139.9c-.5.4-1,.8-1.3,1.3.6-.3,1-.7,1.3-1.3ZM341.3,140.5c0,0,0-.1.1-.2h0c0,0,0,.1-.1.2ZM341.4,140.3c.4-.5.8-.9,1.3-1.3-.3.6-.7,1.1-1.3,1.3ZM343.1,137.6c-.6.3-1.1.8-1.5,1.3.3,0,.5-.2.7-.4l.8-.8ZM342.9,138.8c0,0-.1,0-.1.1,0,0,0-.1.1-.1ZM343.6,138.1h.1c-.2.4-.4.6-.8.7l.6-.7ZM343.7,138.1h0c0-.1,0-.1.1-.1,0,0-.1,0-.1.1ZM343.8,137.9h0q0,0,.1,0c0,0,0,0-.1,0ZM344,137.6h.1c0,0,0,.1-.1.1h0ZM345.1,135.6c-.4.2-.6.5-.8.7q.5-.2.8-.7Z"/>
              <path class="cls-1" d="M363.9,135.1c-.1.1-.2,0-.4,0s0,0-.1,0c-.6-.6-1-.7-1.5-.5-.4.1-.8.2-1.1.3-1.1.4-2.2,1-3.2,1.5-.6.3-1,.6-1.5,1-.2.1-.5.3-.8.4-.1,0-.3,0-.4.3,0,.3-.5.4-.8.6h-.1v.2c-.2,0-.4.2-.6.3h0c0,.1-.1.1-.1.2,0,0,0,0,0-.1h0c-.1,0-.3,0-.4.3-.1.1-.3.2-.5.4s-.3.2-.5.4h-.1l-.5.5h0c0,0-.1.1-.1.2-.1,0-.2,0-.4.1v.2c-.4,0-.6.3-.8.5v.2c-.5.1-.8.4-.8.7h0q0,0,0,.1t0-.1h-.1c0,.2,0,.3-.1.3-.2,0-.4.1-.4.4,0,0-.1.1-.2.1,0,0,0,.1-.1.2,0,0,0,0,0,.1-.6.3-.9.8-1.3,1.3h.4c-.1.2-.4.4-.6.7,0-.1,0-.3,0-.4-.2.1-.4.4-.6.7-.6.6-1.2,1.3-1.5,2.1h-.1c0,.2-.1.3-.1.3,0,0-.1,0-.1,0,0,.1,0,.4-.3.5s-.6.1-.9,0c-.5-.2-.9-.3-1.1-.9,0-.2-.3-.3-.4-.5-.4-.3-.4-.7-.3-1.1.6-1.9,1.1-3.8,1.8-5.7.6-1.7,1.2-3.3,1.7-5,.2-.8.4-1.5.8-2.2l.2-.4c0-.1.2-.1.4,0,.3.2.6.5.8.9.2.6.1,1.1,0,1.7-.2,1.5-.8,2.8-.8,4.2s-.1.3-.1.5,0,.2.1.3.3,0,.3,0l.7-.6c1.1-1.1,2.4-1.9,3.6-2.8,1-.7,2-1.2,3-1.8,1.3-.8,2.7-1.5,4.2-2.2.9-.4,2-.8,3-.9,1-.1,1.8.1,2.6.9s.8.8,1.1,1.3c0,.1,0,.3-.1.4ZM343.9,148.6h-.1c0,0,0,0,.1,0ZM360.2,134.4c-.8.2-1.5.5-2.3.9-2.7,1.5-5.2,2.9-7.4,4.8-2.4,2-4.1,4.4-6.2,6.6-.1.1-.3.3-.3.6h0c0,0,0,0,0,0,.4-.3.6-.7.9-1.1,1.9-2.3,3.9-4.5,6.4-6.4,2.5-2,5.2-4.1,8.3-5.1.2,0,.5-.2.6-.4ZM343.9,148.4h.1c0,0,0,.1-.1.2v-.2ZM344,148.4h0c0-.1.1-.1.1-.1h-.1ZM344.2,148.2c0,0,0-.1.1-.1,0,0,0,0-.1.1ZM344.4,147.9c0,0,0,.1,0,.1,0,0,0,0,0-.1ZM344.5,147.9s0,0-.1,0c0,0,0,0,.1-.1h.1c0-.1-.1,0-.1,0ZM344.8,147.5h-.1c0,0,0,0,0,0h.1q0,0,0,0ZM344.9,147.4h0c0,0,0,0,0,0ZM345,147.3c0,0,0,0,0-.1l.2-.2c0,0-.1.1-.1.2,0,0,0,.1-.1.1ZM345.2,147v-.2h.2,0c0,0,0,.1-.1.2ZM345.9,142.1c.2,0,.4-.1.4-.3-.1,0-.3.1-.4.3ZM346.1,145.9h.1c0,0,0,0-.1,0ZM346.8,145.1h0c0,0,.1-.1.1-.2,0,0,0,.1,0,.2ZM347.1,144.7h-.2c0,0,.1,0,.1,0v-.2c.2,0,.3-.1.3-.1l.2-.2c0,0-.1.1-.1.2,0,0-.1,0-.1.1,0,0-.1.1-.1.2ZM347,141c.2,0,.3-.1.4-.3-.1,0-.3.2-.4.3ZM347.5,144.2c0,0,0-.1.1-.1,0,0-.1,0-.1.1ZM347.6,140.4h.3c0,0,0-.2,0-.3-.2,0-.3.1-.4.3ZM347.7,143.8h.1c0,0,0,.1-.1.1h0ZM347.8,143.7h.1-.1c0,.1,0,0,0,0ZM348,143.5h.1v.2c-.1,0-.1-.2-.1-.2ZM348.1,140.1s0,0,.1,0c0,0,.2,0,.3,0,0,0,0,.1,0,.1.2,0,.3-.1.4-.3h-.4c0-.1,0-.3.1-.4h.3c0,.1.3,0,.3,0h-.3c0-.1,0-.3.1-.3h.4c0,0,.2,0,.3,0h-.3c0-.1,0-.2.1-.3,0,0,.2,0,.3,0,0,0,0,0,0,.1.1,0,.2,0,.3-.1h-.3c0-.1.1-.2.2-.3h.3c.1.1.3,0,.3,0,.2,0,.4-.2.4-.4h-.3q0,0,0-.1h.3s0,0,0,.1c0,0,.2,0,.3-.2.2,0,.3-.1.5-.3.1,0,.2,0,.3-.1.4-.1.6-.3.8-.6h0q0,0,0,0c0,0,.2,0,.3-.1.1,0,.3,0,.3-.2h-.3c0,0,.2,0,.3-.1q0,0,0,.1c0,0,.2,0,.3-.1h-.3c0,0,.1-.1.3-.2h0c.3,0,.6,0,.8-.3h.4c.1-.2.2-.2.3-.4.1,0,.3,0,.4-.1.2,0,.3-.3.5-.4h0c0,0,.3-.1.3-.1h0c.1-.1.2-.1.4-.2h0c.3,0,.6-.2.8-.3h0c.1-.1.2-.1.4-.1,0,0,0-.1,0-.1s-.2,0-.3.1c-.3,0-.6,0-.8.4-.1,0-.3,0-.3.1-1.3.5-2.4,1.2-3.5,1.9-.6.2-1,.6-1.4.9-.3,0-.6.3-.8.5-.3.1-.6.3-.8.6-.1,0-.4.2-.5.3-.1,0-.4.1-.4.4-.2,0-.4.1-.4.3-.3,0-.5.2-.6.5,0,0,0,0,0,.1ZM348.1,143.3h.3c0,0-.1,0-.3.1h0ZM348.4,143.3c0,0,.1-.1.2-.2,0,0-.1.1-.1.2h0ZM348.5,143h.2c0,0-.1,0-.1.1,0,0,0,0,0-.1ZM348.7,142.8h.2c0,0,0,.1-.1.2,0,0,0-.1,0-.2ZM349.3,142.5v-.2c.1,0,0,.1,0,.2h0ZM349.7,142.1c0,0,0,0,0-.1h.1c0,0,0,0,0,.1ZM349.7,141.7h.3c-.1,0-.2.1-.3.2,0,0,0-.1,0-.2ZM350.2,141.6c0,0,0,0-.1.1,0,0,0-.1.1-.1ZM350.2,141.6v-.2c.1,0,0,.1,0,.2ZM350.4,141.2h.1-.1c0,.1,0,0,0,0ZM350.5,141h.4l-.4.2h0v-.2ZM350.5,141.2h0,0ZM350.9,138.2v.2h-.3c0,0,.2-.1.3-.2ZM350.8,140.9h.1c0,0,0,0-.1.1h0ZM351,140.7h.3l-.3.2v-.2ZM351.3,140.7c0,0,.1-.1.2-.2h0c0,.1-.1.1-.1.2h0ZM351.7,137.6v.2h-.4l.4-.2ZM351.5,140.4s0,0,0-.1h.2-.1ZM352.1,137.4s0,0,0,.1h-.4c0-.1.3-.1.3-.1ZM352.5,137.2v.2h-.3l.3-.2ZM352.5,139.4v.2c0-.1,0-.1,0-.2ZM352.6,139.7h0c0,0,0,0,0,0ZM353.5,136.5c0,0,0,.1,0,.2,0,0-.2,0-.3,0h0c0,0,.1,0,.2-.1ZM358.2,133.8c.3,0,.5-.1.4-.1-.2,0-.4,0-.4.1Z"/>
              <path class="cls-1" d="M379.8,140.5c-2.7,1.3-8.3,4.7-10.6,6.5,0,0-.2.1-.3.3-.4.3-.6.6-.4,1.1.2.7.3,1.5.5,2.2.4,1.8.7,3.6.8,5.5,0,1,0,1.9,0,2.8-.1.8-.2,1.5-.4,2.2,0,.2,0,.3,0,.6,0,.4,0,.6-.3,1,0,0,0-.1,0-.1h0c0,.4,0,.7-.3.8,0,0-.1.2-.2.3l-.8,2.1c-.3.3-.3.6-.5.9h.2c0,0-.1.2-.2.3h0c-.1.1-.2.3-.3.4h0c-.1.1-.2.3-.3.4-2.7,4-6,7.3-10,9.9-1.4.9-2.9,1.5-4.5,1.9-.8.2-1.7.2-2.4,0-.6-.2-1-.5-1.5-.8-.9-.5-1.4-1.3-1.5-2.3-.1-1.3,0-2.5.4-3.7.6-2,1.3-4.1,2.4-6,1.3-2.7,3-5.3,4.8-7.8,1-1.4,2.2-2.7,3.4-4.1,1.5-1.8,3.2-3.4,5-5,.8-.8,1.6-1.5,2.5-2.2.3-.3.5-.7.3-1.1l-.6-2c-.4-1.5-.9-3.2-1.3-4.7-.3-1-.4-2-.3-3.1,0-1.3.5-2.5,1.4-3.6.8-1.1,1.7-2,2.7-2.9,1.5-1.3,3.2-2.5,5-3,.4-.1.8-.2,1.2-.3.4,0,.7.2,1,.5s0,.4-.1.6c-.6.2-1,.5-1.6.8-.8.5-1.5.9-2.3,1.5-.3.3-.6.6-1.1.7,0,0,0-.2.1-.3s0-.1.1-.1l.2-.2c.4-.2.8-.5,1.2-.9.3,0,.5-.3.8-.5,0,0,.2,0,.3-.2-.1,0-.3,0-.3.1-.4,0-.6.3-.8.5-.4.2-.8.5-1.1.8l-.2.2c0,0-.1.1-.2.1-.1.1-.3.3-.3.4,0,0-.1,0-.2.1-.3.2-.5.4-.6.7.2-.1.5-.3.6-.6,0,0,.1,0,.2-.1,0,0,.2,0,.3,0,0,.3-.2.5-.4.6-.3.2-.5.5-.6.8l-.2.2c-.3.2-.5.6-.6.8v.2c0,.1-.1.2-.2.3h-.2c-.4.8-.8,1.6-1.1,2.4-.3.8-.4,1.7-.3,2.5.1,1.1.4,2.2.8,3.3.2.8.5,1.5.8,2.3,0,.2,0,.3.1.5.2.4.3.5.8.1.4-.3.8-.6,1.3-.9,1.5-1.1,3.2-2,4.9-2.9,4.7-2.5,6.3-3.1,7.7-3.9,1.8-1,3.7.1-2.3,3ZM364.3,164.7c1.4-2.6,2.2-5.3,2.2-8.1,0-2,0-4.1-.3-6.1,0-.1,0-.3-.1-.4,0-.1-.3-.2-.4-.1-.6.5-1.1.9-1.6,1.4-1.1,1.1-2.3,2.2-3.4,3.5l-.2.2c-.2.2-.4.4-.6.6h0c0,0-.1.1-.1.2h0c-.1.2-.3.3-.4.5-.6.6-1.1,1.3-1.6,2-.3.2-.5.5-.6.8h0c0,0-.1.1-.2.2-.5.6-1,1.1-1.3,1.8l-.2.4c-.3.2-.5.6-.6.9h0c0,0-.2.3-.2.3h0c-.6.6-.9,1.3-1.3,2.1h0c0,0-.2.3-.2.3h0c0,0-.1.2-.2.3-.5.8-.9,1.5-1.2,2.3-.2.4-.3.7-.5,1.1h0c-.3.3-.5.8-.5,1.2-.3.2-.2.5-.3.7-.5,1.1-.8,2.2-.8,3.4,0,.3,0,.6,0,.8-.1.7,0,1.3.1,2,0,.3.2.5.3.7.2.3.4.4.8.2.8-.4,1.6-.7,2.4-1.2,1.3-.8,2.6-1.8,3.9-2.8,1.5-1.3,2.8-2.7,4.1-4.2,1.3-1.5,2.4-3.2,3.4-5ZM350.1,169.9h0c0,0,0,0,0,0ZM350.6,168.7h0c0,0,0,0,0,0h0c0-.1,0,0-.1,0ZM351,167.6c.4-.3.6-.7.7-1.1-.3.3-.6.7-.7,1.1ZM351.7,166.4c.1-.1.2-.4.2-.5-.1.1-.2.3-.2.5ZM352,165.9c.4-.2.5-.6.6-.8.8-1.5,1.8-2.8,2.7-4.1,2-2.7,4.1-5.2,6.4-7.6l3.7-3.6c.1,0,.3-.2.4-.3h0c0-.1,0-.1,0-.1-.1,0-.3.1-.3.3-1.8,1.5-3.4,3.2-5,4.9-3,3.2-5.7,6.7-7.8,10.4-.2.3-.3.6-.5,1ZM354.9,159.2h.1c0,0,0-.2,0-.3,0,0-.1.1-.2.3ZM355.1,158.9h.2c0-.1.2-.1.2-.1v-.3l-.2.3c0,0-.1.1-.2.1ZM355.3,158.9c0,0,0,.2,0,.3l.2-.3h-.1ZM355.5,158.3c.1,0,.3,0,.4-.1v-.3c-.1,0-.2.3-.4.4ZM355.9,157.8h.1s0,0,0-.1h.1c0,.1.2,0,.2,0h-.2l.2-.2c0,0,0-.2,0-.4h.1c0,0,.1,0,.2-.1v-.4c-.1.1-.3.3-.3.5-.2.1-.4.4-.4.6,0,0-.1.1-.2.1ZM356.2,157.9c0,0,0,.2,0,.3l.2-.3h-.1ZM357,156.6h.1c0,0,.1-.1.2-.2v.2c0,0,.1-.1.1-.2h-.1c0,0,.1,0,.2-.1v-.3c-.3.1-.5.4-.6.7ZM357.6,155.9h.1c0-.1-.1,0-.1,0ZM357.8,155.7h.2v.2c0,0,0-.1.1-.2,0,0,.1-.2.2-.4h.2c0-.2.1-.3.2-.3h.2c0-.1-.1-.1-.2-.1,0-.1,0-.2,0-.3h.1v.3l.2-.3c0,0,.1-.1.1-.2h-.1c0,0,.1,0,.2-.1h0q0,0,.1,0h-.1c0,0,.1-.1.2-.2v.2c0,0,0-.1.1-.2l.2-.3c0,0,0,0-.1-.1h.2c0,0,0,0,.1,0l.2-.2c0,0,.1,0,.2-.1l.2-.2c.1-.1.3-.3.3-.5h0c0,0,0-.1.1-.2h-.1s0,0,0-.1h.1c0,0,0,0,.1,0l.2-.2c0,0,.1-.1.2-.1.6-.4,1-.9,1.4-1.4l.2-.2h.1c0-.1,0-.2-.1-.2,0,0,0,0,0,0h0s0,0,0,.1c0,0,0-.1.1-.2h.2c0-.2.1-.3.2-.3h.2c0-.1-.1-.1-.2-.1,0,0,0-.1,0-.1q0,0,.1,0h0c0,.1,0,0,.1,0h-.1s0,0,0-.1h.1c0,0,0,0,.1,0h-.1c0,0,0-.1,0-.1,0,0,0,0,.1,0,0,0,0,.1,0,.1,0,0,.1,0,.2-.1,0,0,.1-.1.2-.1l.2-.2h-.1q0-.1.1-.1c0-.2,0-.1-.2,0,0,0-.1.1-.2.1l-.2.2c0,0-.1.1-.1.2,0,0-.1,0-.2.1,0,0-.1.1-.2.1l-.2.2c0,0-.1.1-.2.1l-.2.2c0,0,0,.1-.1.2,0,0-.1,0-.2.1l-.2.2c-.7.5-1.3,1-1.8,1.8,0,0,0,0-.1.1l-.2.2c-.4.3-.8.6-1,1.1l-.2.2c-.3.2-.6.5-.8.8h.1v.2h-.2c0,0,0-.1,0-.1,0,0-.1,0-.2.1-.2.1-.4.3-.4.5l-.2.2c-.2,0-.3.3-.4.5ZM358.3,155.4h-.1c0-.1.1-.1.2-.1q0,0,0,.1ZM358.4,155.2v-.2h.1c0,0,.1,0,.2-.1h0c0,.1-.1.1-.1.1,0,0,0,.1,0,.2h-.1ZM360,153.5v-.2h.2c0,0,0,.1,0,.2h-.1ZM360.4,153.1h0c0,.1-.1.1-.1.1,0,0,0,0,.1-.1ZM360.6,152.9v.2h-.2l.2-.2ZM361.1,152.3q0,0,.1,0v.2c0,0,0-.1-.1-.1ZM361.6,151.9c0,0,0,.1,0,.2h-.1c0-.1.1-.2.2-.2ZM361.8,151.7h0c0,.1-.1.1-.1.1,0,0,0,0,.1-.1ZM364,167.7c0-.1.1-.3.3-.3,0,0,0,.2,0,.3.1,0,.2-.1.2-.3h-.2c.1-.1.2-.3.3-.4v.3c0,0,.1-.1.1-.3.1,0,.2-.2.3-.3.1,0,.1-.2.1-.4.3-.3.4-.6.5-.9h-.1c0,.1-.1.3-.3.4l.2-.4c0-.1,0-.3,0-.5-.2.1-.3.3-.4.6-.3.6-.8,1.2-1.1,1.8l-.8,1.4c-.2.1-.4.3-.4.6.2,0,.3-.3.5-.5.3-.3.6-.8.9-1ZM363.4,150.2h0q0,0,0,0h0ZM363.6,150.1h-.1c0,0,0-.1.1-.1,0,0,0,0,0,.1ZM367.4,164.4c-.3.2-.4.6-.6.8-.8,1.5-1.6,2.9-2.7,4.3-.1.2-.4.5-.4.8.2-.1.4-.3.6-.5.8-1,1.5-2.1,2.2-3.2.4-.7.8-1.4,1-2.2ZM363.9,149.6h0c0,.1-.1.1-.1.1,0,0,0,0,0-.1h0ZM364.1,149.4v.2c0,0,0,0-.1,0,0,0,0,0,0,0,0,0,0,0,0,0ZM364.1,167.7c0,0,0,.2,0,.3l.2-.3h-.1ZM364.2,149.3h.1c0,.1-.1.1-.1.1h0ZM364.7,166.6c0,0,0,.2,0,.3h-.1c0-.1.1-.3.2-.3ZM364.8,166.6q0,0-.1,0c0-.1.1-.3.2-.4v.3ZM364.9,166.3c0-.2,0-.4.2-.6,0,.2,0,.3,0,.6h-.1ZM365.1,148.6h0c0,.1-.1.1-.1.1,0,0,0,0,0-.1h0ZM365.3,148.4h0c0,.1,0,0-.1,0h0c0,0,.1,0,.1,0ZM367.1,166.6c0,0,.1-.2.2-.3h0c0,.1-.1.3-.2.4h0ZM367.4,166.2c0-.1,0-.4,0-.5,0,0,.1,0,.2,0l-.3.4ZM367.5,164.2q0,0,0,.1c0,0,.1,0,0-.1ZM367.7,132.5c0,0,0-.1.1-.2h-.1v.2ZM368.3,146c.1,0,.2,0,.3-.1h.2c0-.1-.1-.1-.2-.1,0,0,0-.1,0-.1,0,0,.1,0,.1,0h0c0,.1.1,0,.2,0,.2-.1.3-.4.6-.5v-.2c-.3,0-.6.3-.8.5l-.2.2c-.1,0-.3.1-.4.2-.1,0-.2.1-.1.3h.2ZM371.3,144.9c-.3,0-.6.3-.8.5-.3.1-.7.4-1,.7-.5.3-1,.6-1.3,1h0c0,0,0,0,0,0,.5-.2.9-.6,1.3-1.1.4-.1.7-.3,1-.7.3-.1.6-.3.7-.6ZM368.3,130.1c0,0,0,.1,0,.1,0,0,0,0,.1,0h0c0,0,.1-.1.2-.2v.2c0,0,.1-.1.1-.2h-.1c0,0,.1,0,.2-.1h0c0,0,0,0,.1,0l.2-.2c.5-.2.9-.6,1.3-.8,0-.1.2-.2.1-.3-.1-.1-.2,0-.3,0-.6.1-1,.5-1.3.8l-.2.2c-.3,0-.5.3-.7.5ZM369,145.6h-.2q0,0,0-.1c0,0,0,0,.1.1ZM369.2,129.6c0,0,0,.1,0,.2h-.1c0,0,0-.1,0-.1,0,0,0,0,.1,0ZM369.2,129.5c0,0,.1,0,.1,0h-.1ZM369.7,144.9h.1v.2-.2c.1,0,0,0,0,0h0c0-.1.1,0,.2,0,0-.1.2-.3.3-.5-.2,0-.4.1-.6.4,0,0-.1,0-.1.1ZM370.6,144.2c.2,0,.3-.1.5-.3-.2,0-.4.2-.5.3ZM372.1,144.4c-.2,0-.4.1-.5.3.2,0,.4-.1.5-.3ZM372.9,143.8c-.2,0-.4.2-.5.3.2,0,.3-.1.5-.3ZM373.4,143.5c-.2,0-.3.2-.5.4.2,0,.3-.2.5-.4Z"/>
            </g>
          </g>
        </g>
      </g>
    </g>
  </g>
</svg>