<svg xmlns="http://www.w3.org/2000/svg" xmlns:xlink="http://www.w3.org/1999/xlink" width="143.158" height="145.391" viewBox="0 0 143.158 145.391">
  <defs>
    <clipPath id="clip-path">
      <rect id="Rectangle_3" data-name="Rectangle 3" width="87.074" height="117.241" fill="#9470ce"/>
    </clipPath>
  </defs>
  <g id="line-purple-s1" transform="translate(78.449) rotate(42)">
    <g id="Group_7" data-name="Group 7" clip-path="url(#clip-path)">
      <path id="Path_5" data-name="Path 5" d="M60.1,44.031c.03-.2.069-.407.09-.614a15.671,15.671,0,0,0-.219-4.66,49.917,49.917,0,0,0-4.032-12.31A39.7,39.7,0,0,0,52.3,20.519a53.237,53.237,0,0,0-6.327-7.432A38.166,38.166,0,0,0,32.024,4.4,40.679,40.679,0,0,0,23.88,2.533a22.747,22.747,0,0,0-9.487.9A52.332,52.332,0,0,0,3.958,7.994,6.939,6.939,0,0,0,2.2,9.345,6.109,6.109,0,0,0,.987,10.673a.508.508,0,0,1-.706.22.566.566,0,0,1-.218-.765A7.04,7.04,0,0,1,2.038,7.339,4.249,4.249,0,0,1,2.5,6.984a63.208,63.208,0,0,1,8.176-4.66A34.254,34.254,0,0,1,15.192.894c.452-.123.907-.233,1.361-.345A20.214,20.214,0,0,1,23.7.143,40.059,40.059,0,0,1,41.722,6.708a46.369,46.369,0,0,1,9,7.966,53.3,53.3,0,0,1,5.51,7.411,47.632,47.632,0,0,1,4.159,9.272,39.671,39.671,0,0,1,1.957,8.3,21.031,21.031,0,0,1,.052,5.369.751.751,0,0,0,.38.816,61.528,61.528,0,0,1,17.626,19.22,45.148,45.148,0,0,1,5.22,13.48,65.692,65.692,0,0,1,1.033,21.069,24.116,24.116,0,0,1-1.761,7.016,25.815,25.815,0,0,1-1.6,3.053c-.748,1.233-1.587,2.41-2.385,3.612-.07.106-.129.219-.233.4a2.688,2.688,0,0,0,.291-.052c1.223-.4,2.444-.8,3.668-1.2a4.248,4.248,0,0,1,.684-.155c.578-.085.768.069.849.663a.869.869,0,0,1-.563,1.069c-2.363,1.065-4.719,2.147-7.167,3.01a3.692,3.692,0,0,1-.908.21,1.024,1.024,0,0,1-1.1-.827,5.365,5.365,0,0,1-.149-2.2c.176-1.195.384-2.385.583-3.576.119-.712.27-1.419.363-2.134.126-.973.651-1.065,1.384-.732.087.04.17.09.31.164a37.638,37.638,0,0,1-.612,6.027,2.116,2.116,0,0,0,.26-.243,35.187,35.187,0,0,0,4.234-8.188,27.1,27.1,0,0,0,1.279-6.59,69.326,69.326,0,0,0-.811-18.364,45.933,45.933,0,0,0-7.837-18.243,66.909,66.909,0,0,0-13.159-13.64c-.18-.143-.373-.271-.574-.416a1.788,1.788,0,0,0-.148.236A16.419,16.419,0,0,1,57.1,54.582a28.6,28.6,0,0,1-9.716,5.731,31.494,31.494,0,0,1-6.469,1.311A16.566,16.566,0,0,1,34.3,61.2a11.112,11.112,0,0,1-5.381-3.044,9.554,9.554,0,0,1-2.781-6.636,8.047,8.047,0,0,1,1.646-4.906A15.207,15.207,0,0,1,34.336,41.5a23.037,23.037,0,0,1,9.341-1.858c.936.017,1.873,0,2.808.034a28.063,28.063,0,0,1,12.936,4.065q.254.145.513.278a.572.572,0,0,0,.167.01m-.655,2.677c-.123-.1-.207-.178-.3-.239a25.911,25.911,0,0,0-7.529-3.281,42.4,42.4,0,0,0-6.362-.908,20.142,20.142,0,0,0-9.438,1.5,12.808,12.808,0,0,0-5.872,4.471,5.471,5.471,0,0,0-.715,5.385,7.51,7.51,0,0,0,4.926,4.879c.317.1.63.208.951.291a15.79,15.79,0,0,0,4.7.45,25.058,25.058,0,0,0,15.473-6.425,14.9,14.9,0,0,0,3.857-5.306c.117-.263.205-.539.311-.819" transform="translate(0 0)" fill="#9470ce"/>
    </g>
  </g>
</svg>
