<svg xmlns="http://www.w3.org/2000/svg" width="48.463" height="139.355" viewBox="0 0 48.463 139.355">

<style>
 #Path_51 {
  stroke-dasharray: 300;
  stroke-dashoffset: 300;
  animation: draw-51 3s linear forwards;
}

#Path_52 {
  stroke-dasharray: 50;
  stroke-dashoffset: 50;
  animation: draw-52 2s linear forwards;
  animation-delay: 3s; /* Wait for Path_51 animation to complete */
}

#Path_53 {
  stroke-dasharray: 50;
  stroke-dashoffset: 50;
  animation: draw-53 2s linear forwards;
  animation-delay: 3s; /* Wait for Path_51 animation to complete */
}

@keyframes draw-51 {
  to {
    stroke-dashoffset: 0;
  }
}

@keyframes draw-52 {
  from {
    stroke-dashoffset: 50; /* Start after Path_51 animation ends */
  }
  to {
    stroke-dashoffset: 0;
  }
}

@keyframes draw-53 {
  from {
    stroke-dashoffset: 50; /* Start after Path_51 animation ends */
  }
  to {
    stroke-dashoffset: 0;
  }
}

  </style>
  <g id="Group_101" data-name="Group 101" transform="translate(7302.37 6623.942)">
    <g id="Group_100" data-name="Group 100">
      <path id="Path_51" data-name="Path 51" d="M-7165.279-6616.724c3.368-.777,11.412.8,14.377,2.461a45.68,45.68,0,0,1,4.663,2.85c7.095,5.1,10.921,13.114,12.563,19.04a46.675,46.675,0,0,1-5.311,37.431c-4.792,7.419-9.6,7.388-15.413,7.771a21.513,21.513,0,0,1-18.392-9.066,9.876,9.876,0,0,1-2.072-6.347,8.6,8.6,0,0,1,3.363-5.8,9.825,9.825,0,0,1,4.355-1.614,11.873,11.873,0,0,1,3.938.165c1.977.389,10.441,2.492,15.931,12.369,3.784,6.805,5.27,21.577,4.335,30.365-.672,5.04-3.881,15.152-9.9,23.646a55.015,55.015,0,0,1-12.952,12.693c-5.273,3.674-12.3,3.886-12.3,3.886" transform="translate(-123 -6)" fill="none" stroke="#9470ce" stroke-linecap="round" stroke-width="2"/>
      <path id="Path_52" data-name="Path 52" d="M0,7,6,0" transform="translate(-7301.5 -6499.879)" fill="none" stroke="#9470ce" stroke-linecap="round" stroke-width="2"/>
      <path id="Path_53" data-name="Path 53" d="M6,7,0,0" transform="translate(-7301.5 -6492.242) rotate(-11)" fill="none" stroke="#9470ce" stroke-linecap="round" stroke-width="2"/>
    </g>
  </g>
</svg>
