<?xml version="1.0" encoding="UTF-8"?>
<svg id="Logos" xmlns="http://www.w3.org/2000/svg" viewBox="0 0 311.93 159.52">
  <defs>
    <style>

    

    @font-face {
    font-family: 'Sueltaa';
    src: url(../fonts/sueltaa-sueltaa.ttf);
}

      .cls-1 {
        fill: #9470ce;
        stroke-width: 0px;
      }


      .cls-4 {
        fill: #000;
        font-family: 'Sueltaa';
        font-size: 100px;
      }

    </style>


  </defs>
  <path class="cls-1" d="M299.53,97.28c-.57,1.53-1.74,3.01-2.64,4.91-1.55,3.21-3.58,6.16-6.02,8.44-.24.23-.51.53-.67.83-.79,1.42-1.89,2.41-2.98,3.44-1.94,1.82-3.92,3.51-5.91,5.3-1.67,1.53-3.54,2.83-5.36,4.12-.91.63-1.81,1.28-2.65,1.97-2.45,2.05-5.08,3.63-7.74,5.12-2.98,1.67-6.06,3.04-8.96,4.87-1.53.97-3.05,1.35-4.61,1.72-.62.15-1.21.4-1.75.72-2.26,1.36-4.64,2.03-7.03,2.78-2.83.87-5.65,1.9-8.47,2.83-.69.24-1.35.72-2,1.13-1.74,1.11-3.73,1.11-5.47,1.87-2.05.89-4.28.86-6.23,2.06-.55.33-1.16.46-1.75.26-.14-.05-.35-.06-.5,0-3.82,1.49-7.87,1.69-11.72,3.12-1.22.44-2.54.53-3.86.56-1.73.07-3.57.64-5.24,1.05-1.51.38-3.16.41-4.66,1.06-.71.3-1.52.38-2.31.21-.51-.11-1.09,0-1.51.3-.95.67-2.03.74-3.13.8-2.68.11-5.33.52-8,.79-2.11.21-4.35.54-6.38-.23-.78-.29-1.39.11-2,.28-1.55.43-3.04.87-4.71.61-.81-.12-1.76-.24-2.45.44-.16.16-.39.1-.61.08-2.84-.27-5.66-.16-8.47.31-.17.03-.36.09-.52.06-3.12-.69-6.22-.02-9.3.07-2.28.05-4.61.04-6.9.27-2.3.23-4.64,0-6.96-.18-3.5-.26-6.99-.54-10.48-1.01-4.54-.6-9.11-.82-13.6-2-3.22-.84-6.49-.92-9.71-1.83-3.85-1.11-7.75-1.85-11.64-2.78-4.19-1.01-8.39-1.98-12.57-3.19-3.15-.91-6.33-1.65-9.48-2.77-3.69-1.31-7.42-2.4-11.07-4.15-1.2-.57-2.27-1.39-3.42-2.04-.21-.12-.37-.25-.59-.23-.93.04-1.86-.51-2.79-1-3.29-1.77-6.68-3.21-9.87-5.52-3.01-2.18-6.05-4.35-9.1-6.62-2-1.47-3.95-3.12-5.91-4.79-3.83-3.25-7.57-7.08-10.88-12.02-2.02-3.07-3.86-6.56-5.35-10.57-1-2.66-2.21-5.48-2.44-8.73-.94-2.96-1.26-6.44-1.11-9.82.15-3.4.75-6.69,1.45-9.77.89-4.11,2.27-8.03,4.18-11.1,1.01-1.6,1.92-3.7,3.09-5.21.22-.28.42-.71.63-.9,1.57-1.31,2.66-3.42,3.95-5.05,1.97-2.53,4.03-4.76,6.23-6.71,3.87-3.43,7.9-6.07,11.85-8.99,2.84-2.09,5.88-3.62,8.84-5.21,2.86-1.55,5.77-3.13,8.66-4.69,3.59-1.93,7.25-3.56,11-4.68,1.52-.47,3.05-1.28,4.61-1.82,3.22-1.08,6.45-2.17,9.65-3.25,5.53-1.8,11.15-2.69,16.66-4.53,1.74-.59,3.56-.94,5.37-1.08,2.43-.16,4.74-1.23,7.16-1.63,3.16-.51,6.31-.94,9.47-1.21,1.43-.14,2.88-.43,4.32-.62,3.67-.45,7.32-1.09,11-1.39,2.36-.19,4.73-.26,7.09-.33,1.8-.06,3.64-.29,5.45-.8,1.33-.36,2.86-.41,4.26-.3,1.08.08,2.16.08,3.2-.04,3.07-.36,6.19-.09,9.26-.6,1.41-.24,2.95-.42,4.4.15,1.17.44,2.47.21,3.58.14,3.19-.22,6.33.21,9.49.38,2.18.13,4.28-.31,6.46-.08,4.9.52,9.77.41,14.67.88,2.28.22,4.56.53,6.83.93,2.18.37,4.45.53,6.69.68,2.86.19,5.72.73,8.54,1.62.3.09.62.16.92.17,3.55.07,7.09,1.32,10.64,2.02,3.69.72,7.45,1.39,11.14,2.84,3.94,1.54,7.91,3.01,11.92,4.39,3.43,1.18,6.8,2.88,10.21,4.36,4.26,1.86,8.26,4.61,12.38,7.11,2.19,1.31,4.47,2.51,6.56,4.14,5.38,4.23,11.05,8.25,15.94,14.47,2.39,3.06,4.81,6.04,7.15,9.6.79,1.17,1.49,2.61,2.08,4.05.37.88.75,1.75,1.14,2.62.4.84.8,1.67,1.21,2.39,1.66,2.9,2.11,6.48,2.5,10,.13,1.07.03,2.23.04,3.37-.03.97-.27,2.26-.69,3.25-.39.99-.83,1.67-1.09,1.61-.29-.06-.66-1.02-.95-2.2-.17-.59-.32-1.23-.44-1.87-.12-.64-.23-1.27-.25-1.85-.25-4.38-1.48-8.57-2.91-12.28-.94-2.49-2.04-5.03-3.26-6.92-1.01-1.53-2.02-3.89-3.51-4.49-.19-.08-.49-.39-.67-.66-1.84-2.73-3.99-4.82-6.2-6.61-.37-.31-.66-.69-.96-1.08-.71-.92-1.38-1.97-2.41-2.15-.1-.02-.25-.15-.36-.26-2.14-2.24-4.66-3.44-6.89-5.35-.64-.54-1.31-.89-1.98-1.2-1.14-.56-2.23-1.07-3.18-2.21-.35-.44-.87-.83-1.41-1.03-1.63-.6-3.07-1.86-4.62-2.72-2.23-1.25-4.4-2.77-6.74-3.56-.57-.18-1.1-.42-1.64-.74-.57-.34-1.2-.77-1.76-.86-3.04-.5-5.84-2.75-8.86-3.31-.85-.16-1.6-.87-2.49-1.17-2.93-1.02-5.85-2.22-8.81-2.85-1.43-.3-2.88-.83-4.35-.62-.93.12-2.11-.52-3.2-.76-1.19-.27-2.38-.75-3.56-1.19-.36-.13-.69-.21-1.02-.18-1.58.16-3.19-.3-4.79-.67-1.52-.37-2.99-.09-4.53-.55-.67-.2-1.34-.29-2-.63-.53-.27-1.29-.58-1.76-.48-2.96.66-5.84-.71-8.74-1.24-3.11-.59-6.21-1.42-9.35-1.33-.12,0-.32-.04-.36.01-1.24,1.61-3.03.73-4.74.39-.81-.16-1.63-.33-2.47-.3-1.17.03-2.34-.02-3.47-.53-.55-.25-1.21-.39-1.8-.3-1.52.23-3.08-.39-4.52-.23-2.88.35-5.89-.9-8.71.23-.62.25-1.55.1-2.32,0-2.72-.34-5.46-.18-8.16-.34-1.8-.1-3.47.78-5.24.2-.28-.09-.45.17-.68.26-1.11.44-2.16,1.21-3.49.45-.24-.14-.51.01-.73.13-.79.46-1.67.54-2.6.59-3.15.15-6.28.86-9.44.43-.62-.09-1.07.09-1.59.29-1.36.53-2.81.18-4.23.47-2.82.57-5.67-.16-8.57.69-1.71.49-3.57.47-5.38-.08-1.53-.44-3.37.1-4.98.68-1.73.61-3.47.56-5.2.91-2.01.42-4.03.17-6.07,1.05-1.42.59-3.04,1.05-4.6.95-.68-.04-1.16.37-1.75.51-2.52.59-5.03,1.27-7.54,1.96-.72.19-1.39.13-1.97-.09-.85-.34-1.59-.08-2.4.48-1.36.95-2.78,1.7-4.37,1.31-.29-.07-.57-.04-.84.21-1.99,1.82-4.41,1.78-6.66,2.5-.72.23-1.43.43-2.14.75-2.04.93-4.1,1.57-6.2,1.95-.99.17-1.93.41-2.82,1.18-.55.47-1.31.65-1.94,1-1.72.93-3.6,1.1-5.24,2.55-.89.78-2.21.66-3.32,1.29-1.69.94-3.44,1.76-5.07,2.85-1.72,1.14-3.52,1.72-5.25,2.78-.9.56-1.86,1.15-2.8,1.69-.67.4-1.38.99-2.04,1.14-1.28.31-2.45,1.27-3.66,1.96-.24.13-.56.25-.71.45-1.66,2.28-3.97,2.78-5.8,4.68-1.39,1.48-2.95,2.72-4.34,4.25-1.52,1.66-2.94,3.45-4.57,4.86-.17.14-.42.44-.45.62-.3,1.41-1.18,2.23-1.95,2.93-.88.81-1.22,2.03-1.85,3.05-1.78,2.78-3.7,5.59-4.57,9.36-.13.62-.33,1.18-.55,1.71-.2.54-.42,1.07-.61,1.61-.73,2.29-.82,4.84-.97,7.34-.12,2.01.42,4.14.89,6.05.67,2.64,1.49,4.85,2.18,7.73.55,2.33,1.75,4.73,3.31,6.54,1.55,1.81,3.14,4.12,4.68,6.21,1.64,2.24,3.24,4.5,5.4,5.53.48.25,1.08.85,1.52,1.39,1.23,1.51,2.68,2.59,4.08,3.46,1.24.75,2.35,1.75,3.56,2.51,3.27,2.07,6.54,4.12,9.86,6.09,1.42.85,2.82,1.48,3.99,2.78.12.13.33.27.46.28,2.51.24,4.94,1.38,7.4,2.73,1.81.98,3.72,1.35,5.56,2.36,2.65,1.45,5.46,2.59,8.22,3.17,4.15.84,8.21,2.34,12.33,3.29,1.94.45,3.86,1.21,5.86,1.3,2.07.08,4.13,1.2,6.24,1.56,3.47.59,6.89,1.59,10.32,2.41,2.05.48,4.23.45,6.2,1.51.31.17.76.16,1.15.18,1.28.08,2.49.47,3.74.79,1.49.39,3.19.64,4.82.61,1.52,0,2.97-.07,4.45-.4,1.42-.32,3.03.54,4.57.77,1.6.21,3.18.22,4.76.21.7,0,1.38.09,2.07.18,2.98.4,5.92-.14,8.84-.03,2.79.11,5.49-1.1,8.3-.12.72.25,1.32-.24,2.01-.28,1.46-.11,2.88-.39,4.37-.03.98.23,1.95-.21,2.92-.31,2.92-.3,5.84-.55,8.79-.35,1.57.1,3.21-.2,4.6.66.28.17.66-.08.97-.22,2.49-1.05,4.97-1.85,7.79-2.22,3.31-.43,6.6-1.17,9.9-1.77,2.76-.49,5.26-1.81,7.94-2.33,2.59-.5,4.96-2.27,7.67-1.85,1.98.29,3.79-.44,5.71-1,1.46-.41,2.77-.91,4.01-1.73.34-.23.73-.32,1.1-.21.98.32,1.87-.04,2.71-.68.57-.44,1.17-.62,1.79-.43.64.19,1.22.02,1.79-.42.93-.74,2.05-1.2,3.02-1.9,1.17-.86,2.45-.28,3.69-.49.82-.14,1.6-.25,2.33-.65,1.85-1.03,3.78-1.52,5.72-1.9.74-.15,1.35-.36,1.99-.91.82-.7,1.8-1.19,2.84-1.17.83.02,1.68-.3,2.28-.86,1.76-1.63,3.84-1.94,5.79-2.82,1.9-.84,3.87-1.2,5.73-2.48.83-.55,1.98-1.07,3.05-1.1.86-.04,1.65-.77,2.43-1.29,1.96-1.35,4.03-2.22,6.01-3.43,1.91-1.14,3.84-1.64,5.69-2.95,1.48-1.07,3.07-1.57,4.58-1.99.55-.16.94-.65,1.44-.84,1.13-.45,2.23-1.26,3.37-1.57,1.44-.38,2.59-2.12,3.9-3.12,2.21-1.68,4.03-4.24,5.87-6.43,1.33-1.58,2.74-3.03,3.78-4.98.15-.3.39-.6.4-.92.02-.59.18-1.1.38-1.6.21-.49.44-.96.57-1.47.45-1.56,1.11-2.59,1.61-3.78.49-1.11.59-2.3.75-3.41.1-1.04.29-1.94.46-2.9.16-.9.46-1.01.8-.33.18.36.4.75.41,1.31.19,4.1-.53,8.76-2.31,13.03-.13.29-.28.56-.65,1.18Z"/>
  <text class="cls-4" transform="translate(49.51 99.87)"><tspan x="0" y="0">OKAY!</tspan></text>
</svg>