<svg id="Repeat" xmlns="http://www.w3.org/2000/svg" width="13.005" height="10.939" viewBox="0 0 13.005 10.939">
  <path id="Fill_188" data-name="Fill 188" d="M.541,6.047h0a.541.541,0,0,0,.542-.542l0-1.7A1.356,1.356,0,0,1,2.439,2.455h8.713l-.449.45a.542.542,0,0,0,.766.767l1.358-1.357a.537.537,0,0,0,0-.8L11.469.158A.542.542,0,0,0,10.7.925l.449.447H2.439A2.442,2.442,0,0,0,0,3.807l0,1.7a.542.542,0,0,0,.541.542" transform="translate(0 0)" fill="#fff"/>
  <path id="Fill_189" data-name="Fill 189" d="M12.464,0h0a.543.543,0,0,0-.542.542l0,1.7a1.355,1.355,0,0,1-1.354,1.352H1.853L2.3,3.145a.542.542,0,1,0-.766-.767L.178,3.735a.537.537,0,0,0,0,.8L1.536,5.891A.542.542,0,1,0,2.3,5.125l-.449-.45h8.713A2.44,2.44,0,0,0,13,2.24l0-1.7A.544.544,0,0,0,12.464,0" transform="translate(0 4.888)" fill="#fff"/>
</svg>
