<svg id="Song_Actions" data-name="Song Actions" xmlns="http://www.w3.org/2000/svg" width="12.799" height="9.799" viewBox="0 0 12.799 9.799">
  <g id="Volume" transform="translate(0 0)">
    <path id="Fill_179" data-name="Fill 179" d="M6.932,9.8a.524.524,0,0,1-.279-.082l-3.338-2.1H.533A.54.54,0,0,1,0,7.076V2.722a.54.54,0,0,1,.533-.544H3.315L6.653.081A.521.521,0,0,1,7.193.07a.543.543,0,0,1,.273.474v8.71a.545.545,0,0,1-.273.476A.517.517,0,0,1,6.932,9.8ZM1.067,3.266V6.532h2.4a.51.51,0,0,1,.279.082L6.4,8.279V1.518L3.746,3.184a.515.515,0,0,1-.279.082Z" transform="translate(0)" fill="#fff"/>
    <path id="Fill_180" data-name="Fill 180" d="M.4,6.784a.4.4,0,0,1-.283-.12.414.414,0,0,1,0-.577A3.825,3.825,0,0,0,1.211,3.392,3.829,3.829,0,0,0,.117.7a.414.414,0,0,1,0-.577.392.392,0,0,1,.566,0A4.646,4.646,0,0,1,2.011,3.392,4.646,4.646,0,0,1,.683,6.664a.4.4,0,0,1-.283.12" transform="translate(10.788 1.507)" fill="#fff"/>
    <path id="Fill_181" data-name="Fill 181" d="M.4,4.089a.4.4,0,0,1-.283-.12.414.414,0,0,1,0-.577A1.912,1.912,0,0,0,.664,2.045,1.912,1.912,0,0,0,.117.7a.414.414,0,0,1,0-.577.392.392,0,0,1,.566,0,2.733,2.733,0,0,1,.781,1.924A2.733,2.733,0,0,1,.683,3.969a.4.4,0,0,1-.283.12" transform="translate(9.468 2.854)" fill="#fff"/>
  </g>
</svg>
